<svg xmlns="http://www.w3.org/2000/svg" xml:space="preserve" width="847.159" height="743.623"><path d="M338.867 594.5c-7.512 0-15.027-2.867-20.758-8.598a29.345 29.345 0 0 1-4.707-6.152l-15.246-26.157h-.07L4.984 45.554c-.054-.097-.097-.195-.152-.293a29.402 29.402 0 0 1-3.426-7.91C-2.789 21.695 6.504 5.597 22.164 1.402a29.238 29.238 0 0 1 7.738-1h618.067c16.215 0 29.355 13.141 29.355 29.356a29.209 29.209 0 0 1-3.879 14.578.738.738 0 0 0-.05.097l-304.368 528.41c-3.863 6.665-5.652 9.305-9.406 13.059-5.73 5.731-13.242 8.598-20.754 8.598z" style="fill:#fff;fill-opacity:1;fill-rule:nonzero;stroke:none" transform="matrix(1.25 0 0 -1.25 0 743.623)"/><path d="M338.867 587.144c-7.125.051-14.949-3.59-18.781-10.406L10.793 40.847c-1.785-3.648-2.535-6.82-2.559-10.449 0-6.496 2.875-12.66 7.848-16.84 4.383-3.394 8.535-5.16 14.121-5.16h617.906c3.77-.035 7.547.871 10.977 3.133a21.552 21.552 0 0 1 10.41 18.426c-.183 3.894-1.144 8-2.879 10.89L357.504 576.828c-.027.047-.059.094-.09.14a7.444 7.444 0 0 0-.094.145 19.975 19.975 0 0 1-4.039 4.633 21.992 21.992 0 0 1-12.824 5.316c-.531.047-1.062.078-1.59.082zM30.203 8.398H28.68h1.554-.031zm308.344 472.535L574.25 72.398H102.512l236.035 408.535z" style="fill:#c1121c;fill-opacity:1;fill-rule:nonzero;stroke:none" transform="matrix(1.25 0 0 -1.25 0 743.623)"/><path d="M338.867 594.898c-7.617 0-15.23-2.906-21.039-8.715a29.768 29.768 0 0 1-4.773-6.234l-15.129-25.957h-.071L4.641 45.754c-.067-.118-.114-.219-.161-.301a29.793 29.793 0 0 1-3.46-7.996C-3.23 21.586 6.191 5.269 22.059 1.015A29.883 29.883 0 0 1 29.902 0h618.067c16.429 0 29.758 13.328 29.758 29.758a29.626 29.626 0 0 1-3.934 14.773c-.012.019-.027.051-.051.098L369.379 573.043c-3.871 6.668-5.695 9.363-9.469 13.14-5.808 5.809-13.426 8.715-21.039 8.715h-.004zm0-.398c7.512 0 15.024-2.867 20.754-8.598 3.754-3.754 5.543-6.394 9.406-13.059l304.364-528.41c.019-.035.035-.066.054-.097a29.209 29.209 0 0 0 3.879-14.578c0-16.215-13.14-29.356-29.355-29.356H29.902a29.238 29.238 0 0 0-7.738 1C6.504 5.597-2.789 21.695 1.406 37.351a29.276 29.276 0 0 0 3.426 7.91c.055.098.098.196.152.293l293.102 508.039h.07l15.246 26.157a29.345 29.345 0 0 0 4.707 6.152c5.731 5.731 13.243 8.598 20.758 8.598z" style="fill:#000;fill-opacity:1;fill-rule:nonzero;stroke:none" transform="matrix(1.25 0 0 -1.25 0 743.623)"/><path d="M358.848 366.82c0-13.164-10.66-23.84-23.84-23.84-13.16 0-23.836 10.676-23.836 23.84 0 13.176 10.676 23.852 23.836 23.852 13.18 0 23.84-10.676 23.84-23.852zm11.925-70.914v-69.148h-47.691v57.191l-30.957-47.688c-6.273-9.656-19.203-12.406-28.859-6.136l58.675 90.347c8.957 13.809 27.407 17.735 41.215 8.758a25.534 25.534 0 0 0 2.922-2.16l40.027-33.57a17.9 17.9 0 0 0 6.379-13.692v-29.195c0-11.543-9.332-20.871-20.855-20.871v48.664l-20.856 17.5zm-23.835-87.113-56.297-103.68c-6.274-11.57-20.75-15.863-32.321-9.563l63.325 116.625a12.013 12.013 0 0 1 1.437 5.684v2.938h47.691v-2.938c0-1.976.497-3.937 1.454-5.684l47.32-87.195c6.285-11.586 2.008-26.047-9.563-32.316" style="fill:#000;fill-opacity:1;fill-rule:nonzero;stroke:none" transform="matrix(1.25 0 0 -1.25 0 743.623)"/></svg>