<svg xmlns="http://www.w3.org/2000/svg" xml:space="preserve" width="601.002" height="601.002"><path d="M480.402 240.403c0-132.551-107.453-240-240-240-132.55 0-240 107.449-240 240 0 132.547 107.45 240 240 240 132.547 0 240-107.453 240-240z" style="fill:#fff;fill-opacity:1;fill-rule:nonzero;stroke:none" transform="matrix(1.25 0 0 -1.25 0 601.002)"/><path d="M240.398 480.802C107.633 480.802 0 373.169 0 240.403 0 107.638 107.633.001 240.398.001c132.766 0 240.403 107.637 240.403 240.402 0 132.766-107.637 240.399-240.403 240.399zm0-.399c132.551 0 240-107.453 240-240 0-132.551-107.449-240-240-240-132.546 0-240 107.449-240 240 0 132.547 107.454 240 240 240z" style="fill:#000;fill-opacity:1;fill-rule:nonzero;stroke:none" transform="matrix(1.25 0 0 -1.25 0 601.002)"/><path d="M240.398 472.348c-128.023 0-231.941-103.921-231.941-231.945 0-128.027 103.918-231.945 231.941-231.945 128.028 0 231.946 103.918 231.946 231.945 0 128.024-103.918 231.945-231.946 231.945zm0-12c46.309 0 89.25-14.296 124.676-38.703L59.156 115.727c-24.406 35.426-38.703 78.368-38.703 124.676 0 121.539 98.406 219.945 219.945 219.945zm131.922-43.902a222.916 222.916 0 0 0 7.133-5.594L69.949 101.348a225.807 225.807 0 0 0-5.594 7.133L372.32 416.446Zm13.856-11.316a227.777 227.777 0 0 0 6.629-6.102L81.773 88.001a222.519 222.519 0 0 0-6.101 6.625L386.176 405.13Zm12.847-12.328a217.421 217.421 0 0 0 6.106-6.625L94.625 75.673A217.389 217.389 0 0 0 88 81.778l311.023 311.024zm11.829-13.344c1.91-2.34 3.777-4.715 5.593-7.133L108.48 64.356a225.926 225.926 0 0 0-7.136 5.594l309.508 309.508zm10.793-14.383c24.406-35.426 38.703-78.367 38.703-124.672 0-121.543-98.407-219.945-219.95-219.945-46.304 0-89.246 14.297-124.671 38.703l305.918 305.914z" style="fill:#000;fill-opacity:1;fill-rule:nonzero;stroke:none" transform="matrix(1.25 0 0 -1.25 0 601.002)"/></svg>