<svg xmlns="http://www.w3.org/2000/svg" xml:space="preserve" width="601" height="601"><path d="M29.199 480.402C.336 480.417.398 451.597.398 451.597V29.199S.336.374 29.199.402h422.403c29.05-.031 28.796 28.797 28.796 28.797v422.398s.239 28.899-28.796 28.805H29.199z" style="fill:#fff;fill-opacity:1;fill-rule:nonzero;stroke:none" transform="matrix(1.25 0 0 -1.25 0 601)"/><path d="M29.199 470.8C18.598 470.8 10 462.203 10 451.601V29.199c0-10.61 8.598-19.2 19.199-19.2h422.403c10.601 0 19.199 8.59 19.199 19.2v422.402c0 10.602-8.598 19.199-19.199 19.199H29.199zM78 402.8h324.801V77.999H78V402.8z" style="fill:#154889;fill-opacity:1;fill-rule:nonzero;stroke:none" transform="matrix(1.25 0 0 -1.25 0 601)"/><path d="M29.199 480.8c-14.566.008-21.941-7.316-25.582-14.617C-.023 458.882 0 451.593 0 451.593V29.199s-.02-7.289 3.617-14.586C7.258 7.312 14.633-.012 29.199-.001h422.403c14.656-.015 22.035 7.313 25.652 14.614 3.613 7.297 3.547 14.582 3.547 14.586v422.398c0 .004.062 7.309-3.555 14.613-3.617 7.309-10.996 14.637-25.644 14.59H29.199zm0-.398h422.403c29.035.094 28.796-28.805 28.796-28.805V29.199S480.652.371 451.602.402H29.199C.336.374.398 29.199.398 29.199v422.398s-.062 28.82 28.801 28.805z" style="fill:#000;fill-opacity:1;fill-rule:nonzero;stroke:none" transform="matrix(1.25 0 0 -1.25 0 601)"/><path d="M94.398 129.855v105.121l22.52 53.395 41.711 40.046 54.238 22.532h55.879l53.406-22.532 41.711-40.046 22.535-53.395V129.855h-292zm24.188 4.176H98.563v41.722h20.023v-41.722zm-20.023 45.886v52.071l21.523-7.949c-.027-.192-.051-.379-.09-.567a117.314 117.314 0 0 1-.543-3.988 104.659 104.659 0 0 1-.39-3.824 94.872 94.872 0 0 1-.29-3.821c-.05-1.011-.101-2.031-.125-3.054a91.403 91.403 0 0 1-.062-3.266v-25.602H98.563zm.843 56.157 20.227 47.945 17.472-14.496c-.226-.379-.468-.758-.695-1.149a110.106 110.106 0 0 1-4.59-8.203 107.094 107.094 0 0 1-3.75-8.097 114.47 114.47 0 0 1-3.152-8.368 116.652 116.652 0 0 1-2.082-6.835 107.541 107.541 0 0 1-1.754-7.395c-.102-.441-.176-.883-.277-1.324l-21.399 7.922zm22.571 51.386 37.461 35.934 11.113-18.66c-.363-.238-.731-.504-1.098-.758a117.847 117.847 0 0 1-7.418-5.766 106.014 106.014 0 0 1-6.621-6.004 109.673 109.673 0 0 1-6.172-6.46 112.454 112.454 0 0 1-4.578-5.489 105.004 105.004 0 0 1-4.519-6.117c-.25-.367-.504-.746-.77-1.109l-17.398 14.429zm40.957 38.231 48.75 20.25 3.418-21.852c-.442-.09-.872-.175-1.313-.277a112.948 112.948 0 0 1-9.082-2.41 111.201 111.201 0 0 1-8.441-2.93 102.74 102.74 0 0 1-8.203-3.543 111.134 111.134 0 0 1-6.372-3.242 121.978 121.978 0 0 1-6.546-3.875c-.379-.238-.758-.492-1.137-.731l-11.074 18.61zm52.836 21.082h49.242l-3.43-21.879c-.215.039-.418.066-.633.102-1.476.265-2.937.48-4.426.683-1.402.188-2.816.352-4.226.492-1.414.125-2.828.25-4.242.34-1.133.063-2.282.125-3.391.164-1.226.039-2.437.063-3.637.074h-1.273c-.43-.011-.856-.011-1.274-.011a222.014 222.014 0 0 1-3.203-.09 121.49 121.49 0 0 1-4.254-.262 96.276 96.276 0 0 1-4.238-.394 100.16 100.16 0 0 1-3.383-.426 85.251 85.251 0 0 1-3.57-.57c-.215-.036-.43-.063-.629-.102l-3.433 21.879zm166.453-212.742h-20.024v41.722h20.024v-41.722zm0 45.886h-20.024v25.602c0 1.348-.039 2.684-.09 4.023a99.124 99.124 0 0 1-.211 3.821 97.953 97.953 0 0 1-.328 3.824 83.676 83.676 0 0 1-.343 3.055 88.026 88.026 0 0 1-.454 3.23c-.023.188-.05.375-.089.567l21.539 7.949v-52.071zm-21.059 104.102 20.211-47.945-21.41-7.922c-.086.441-.176.883-.262 1.324a115.234 115.234 0 0 1-2.262 9.109 109.854 109.854 0 0 1-2.773 8.504 104.354 104.354 0 0 1-3.395 8.25 115.907 115.907 0 0 1-3.14 6.422 114.441 114.441 0 0 1-3.762 6.613c-.238.391-.465.77-.707 1.149l17.5 14.496zm-39.816 39.375 37.445-35.934-17.398-14.429c-.254.363-.504.742-.758 1.109a120.914 120.914 0 0 1-5.625 7.52 117.007 117.007 0 0 1-5.879 6.722 115.597 115.597 0 0 1-6.36 6.285 120.673 120.673 0 0 1-5.414 4.68 113.373 113.373 0 0 1-6.031 4.629c-.363.254-.742.52-1.109.758l11.129 18.66zm-52.246 22.547 48.75-20.25-11.09-18.61c-.379.239-.746.481-1.137.731a115.805 115.805 0 0 1-8.113 4.719 121.073 121.073 0 0 1-8.047 3.898 116.79 116.79 0 0 1-8.289 3.293 116.87 116.87 0 0 1-6.813 2.195 117.18 117.18 0 0 1-7.371 1.895c-.441.102-.883.187-1.308.277l3.418 21.852" style="fill:#0c0b09;fill-opacity:1;fill-rule:evenodd;stroke:none" transform="matrix(1.25 0 0 -1.25 0 601)"/></svg>