<svg xmlns="http://www.w3.org/2000/svg" xml:space="preserve" width="847.159" height="743.623"><path d="M338.859 594.5a29.274 29.274 0 0 0 20.758-8.598 29.345 29.345 0 0 0 4.707-6.152l15.246-26.156h.071L672.742 45.551c.055-.094.098-.192.153-.29a29.561 29.561 0 0 0 3.429-7.91c4.192-15.656-5.101-31.754-20.762-35.949a29.24 29.24 0 0 0-7.734-1H29.754C13.543.402.402 13.543.402 29.758a29.22 29.22 0 0 0 3.879 14.578c.02.035.039.062.051.097l304.371 528.411c3.859 6.664 5.649 9.304 9.402 13.058a29.261 29.261 0 0 0 20.754 8.598z" style="fill:#fff;fill-opacity:1;fill-rule:nonzero;stroke:none" transform="matrix(1.25 0 0 -1.25 0 743.623)"/><path d="M338.859 587.144c7.125.051 14.95-3.593 18.782-10.402L666.934 40.847c1.785-3.648 2.535-6.82 2.558-10.449 0-6.496-2.875-12.66-7.847-16.844-4.387-3.39-8.536-5.156-14.122-5.156H29.617c-3.769-.035-7.547.871-10.98 3.133A21.56 21.56 0 0 0 8.23 29.957c.184 3.894 1.145 8 2.879 10.89l309.114 535.981c.027.047.058.094.089.141.032.046.063.089.094.144 1.094 1.758 2.469 3.305 4.043 4.633a21.94 21.94 0 0 0 12.821 5.312c.531.051 1.062.082 1.589.086zM647.523 8.398h1.524-1.555.031zM339.18 480.929 103.477 72.398h471.738L339.18 480.929z" style="fill:#c1121c;fill-opacity:1;fill-rule:nonzero;stroke:none" transform="matrix(1.25 0 0 -1.25 0 743.623)"/><path d="M338.859 594.898c7.618 0 15.231-2.906 21.039-8.719a29.69 29.69 0 0 0 4.774-6.23l15.129-25.957h.07L673.086 45.754c.066-.118.117-.219.16-.301a29.763 29.763 0 0 0 3.461-7.996c4.25-15.871-5.172-32.188-21.039-36.442A29.882 29.882 0 0 0 647.828 0H29.754C13.328 0 0 13.328 0 29.758a29.635 29.635 0 0 0 3.934 14.773c.015.016.027.051.05.098l304.364 528.414c3.871 6.668 5.695 9.363 9.468 13.136 5.809 5.813 13.426 8.719 21.039 8.719h.004zm0-.398a29.261 29.261 0 0 1-20.754-8.598c-3.753-3.754-5.543-6.394-9.402-13.058L4.336 44.433c-.016-.035-.035-.062-.055-.097A29.22 29.22 0 0 1 .402 29.758C.402 13.543 13.543.402 29.754.402h618.074a29.24 29.24 0 0 1 7.734 1c15.661 4.195 24.954 20.293 20.762 35.949a29.434 29.434 0 0 1-3.429 7.91c-.055.098-.098.196-.153.29L379.641 553.594h-.071l-15.246 26.156a29.345 29.345 0 0 1-4.707 6.152 29.267 29.267 0 0 1-20.758 8.598z" style="fill:#000;fill-opacity:1;fill-rule:nonzero;stroke:none" transform="matrix(1.25 0 0 -1.25 0 743.623)"/><path d="m562.117 80.07-11.621 20.106h-92.398l10.058 10.062h12.071l12.066 22.125-28.168 30.168-16.094-2.02-12.062 6.043-28.164-10.05-18.098-16.094 2.016-24.156 32.175-16.078h-76.425l-14.075 76.445-10.082 8.015 8.055 80.473-12.062 8.031 8.054 12.071-8.054 56.316-40.215 19.723L116.738 80.07m317.227 106.586-22.129 14.078-6.035 20.133 14.074 14.09 8.055-6.059 8.039 6.059 20.101-16.094-2.004-12.074-2.004-14.086-18.097-6.047zm-74.43 86.484 18.102 4.039 24.133-20.117 2.027-26.16-16.094-14.074-8.055 12.07h-8.039l-17.105 20.117 5.031 6.043v18.082zm-34.191 70.391 42.234-4.008 12.07 24.141-14.074 10.051-2.008 14.074-32.195 6.043-16.078-10.063-4.023 2.016-12.071-10.051 26.145-32.203z" style="fill:#000;fill-opacity:1;fill-rule:nonzero;stroke:none" transform="matrix(1.25 0 0 -1.25 0 743.623)"/></svg>