<svg xmlns="http://www.w3.org/2000/svg" xml:space="preserve" width="847.159" height="743.623"><path d="M338.867 594.5a29.275 29.275 0 0 1-20.758-8.598 29.345 29.345 0 0 1-4.707-6.152l-15.246-26.156h-.07L4.984 45.551c-.054-.094-.097-.192-.152-.29a29.595 29.595 0 0 1-3.43-7.91C-2.789 21.695 6.504 5.597 22.164 1.402a29.25 29.25 0 0 1 7.734-1h618.075c16.211 0 29.351 13.141 29.351 29.356a29.22 29.22 0 0 1-3.879 14.578c-.019.035-.039.062-.05.097L369.023 572.844c-3.859 6.664-5.648 9.304-9.402 13.058-5.73 5.731-13.242 8.598-20.754 8.598z" style="fill:#fff;fill-opacity:1;fill-rule:nonzero;stroke:none" transform="matrix(1.25 0 0 -1.25 0 743.623)"/><path d="M338.867 587.144c-7.125.051-14.949-3.593-18.781-10.402L10.793 40.847c-1.785-3.648-2.535-6.82-2.559-10.449 0-6.496 2.875-12.66 7.848-16.844 4.387-3.39 8.535-5.156 14.121-5.156h617.906c3.77-.035 7.547.871 10.981 3.133a21.562 21.562 0 0 1 10.406 18.426c-.183 3.894-1.144 8-2.879 10.89L357.504 576.828c-.027.047-.059.094-.09.141-.031.046-.062.089-.094.144-1.093 1.758-2.468 3.305-4.043 4.633a21.94 21.94 0 0 1-12.82 5.312 18.08 18.08 0 0 1-1.59.086zM30.203 8.398H28.68h1.554-.031zm308.344 472.531L574.25 72.398H102.512l236.035 408.531z" style="fill:#c1121c;fill-opacity:1;fill-rule:nonzero;stroke:none" transform="matrix(1.25 0 0 -1.25 0 743.623)"/><path d="M338.867 594.898c-7.617 0-15.23-2.906-21.039-8.719a29.72 29.72 0 0 1-4.773-6.23l-15.129-25.957h-.071L4.641 45.754c-.067-.118-.118-.219-.161-.301a29.793 29.793 0 0 1-3.46-7.996C-3.23 21.586 6.191 5.269 22.059 1.015A29.875 29.875 0 0 1 29.898 0h618.075c16.425 0 29.754 13.328 29.754 29.758a29.635 29.635 0 0 1-3.934 14.773c-.016.016-.027.051-.051.098L369.379 573.043c-3.871 6.668-5.695 9.363-9.469 13.136-5.808 5.813-13.426 8.719-21.039 8.719h-.004zm0-.398c7.512 0 15.024-2.867 20.754-8.598 3.754-3.754 5.543-6.394 9.402-13.058L673.391 44.433c.015-.035.035-.062.054-.097a29.22 29.22 0 0 0 3.879-14.578c0-16.215-13.14-29.356-29.351-29.356H29.898a29.25 29.25 0 0 0-7.734 1C6.504 5.597-2.789 21.695 1.402 37.351a29.468 29.468 0 0 0 3.43 7.91c.055.098.098.196.152.29l293.102 508.043h.07l15.246 26.156a29.345 29.345 0 0 0 4.707 6.152 29.27 29.27 0 0 0 20.758 8.598z" style="fill:#000;fill-opacity:1;fill-rule:nonzero;stroke:none" transform="matrix(1.25 0 0 -1.25 0 743.623)"/><path d="m118.887 84.484 6.961 12.086h126c-4.153 0-7.547 3.379-7.547 7.527v27.657h30.183v-27.657c0-4.148-3.379-7.527-7.546-7.527h285.714l6.977-12.086M274.484 174.496c0 8.336-6.757 15.094-15.093 15.094-8.332 0-15.09-6.758-15.09-15.094 0-8.332 6.758-15.074 15.09-15.074 8.336 0 15.093 6.742 15.093 15.074zm-55.738 82.976h35.613c5.016 0 9.539-2.976 11.528-7.546l19.894-45.707a44.421 44.421 0 0 1 5.293-9.106l3.008-4.012a15.129 15.129 0 0 0 3.023-9.058v-32.684c0-6.961-5.632-12.562-12.558-12.562H149.07l37.746 65.355h86.403l-17.285 39.719a5.028 5.028 0 0 1-4.614 3.023h-39.828" style="fill:#000;fill-opacity:1;fill-rule:nonzero;stroke:none" transform="matrix(1.25 0 0 -1.25 0 743.623)"/><path d="m300.734 100.582-.679 4.797 136.23 19.136.676-4.769M324.867 115.07l-1.804 4.461 127.558 51.555 1.805-4.473M300.734 109.347l-2.64 4.055 87.715 56.961 2.636-4.043M406.918 181.039l-9.66 4.508 4.504 9.675 12.285 4.473 9.676-4.519-4.524-9.661M445.543 184.265l-4.953 4.954 4.953 4.953h8.578l4.969-4.953-4.969-4.954M463.645 148.867l-4.954 4.937 4.954 4.954h8.593l4.953-4.954-4.953-4.937M421.406 129.144l-8.285 3.86 3.859 8.3 10.54 3.829 8.269-3.875-3.855-8.27M453.582 106.215l-5.387 5.382 5.387 5.403h9.336l5.402-5.403-5.402-5.382M488.98 104.625l-6.355 2.945 2.977 6.344 8.07 2.93 6.359-2.946-2.98-6.359M472.887 120.703l-9.66 4.508 4.507 9.66 12.297 4.488 9.66-4.519-4.503-9.661" style="fill:#000;fill-opacity:1;fill-rule:nonzero;stroke:none" transform="matrix(1.25 0 0 -1.25 0 743.623)"/></svg>