<svg xmlns="http://www.w3.org/2000/svg" xml:space="preserve" width="847.159" height="743.623"><path d="M338.859 594.5c7.512 0 15.028-2.867 20.758-8.598a29.312 29.312 0 0 0 4.707-6.152l15.246-26.157h.071L672.742 45.554c.055-.097.098-.195.153-.293a29.368 29.368 0 0 0 3.425-7.91c4.196-15.656-5.097-31.754-20.757-35.949a29.24 29.24 0 0 0-7.739-1H29.758C13.543.402.402 13.543.402 29.758a29.209 29.209 0 0 0 3.879 14.578c.02.031.035.062.051.097l304.367 528.41c3.864 6.665 5.653 9.305 9.406 13.059a29.261 29.261 0 0 0 20.754 8.598z" style="fill:#fff;fill-opacity:1;fill-rule:nonzero;stroke:none" transform="matrix(1.25 0 0 -1.25 0 743.623)"/><path d="M338.859 587.144c7.125.051 14.95-3.59 18.782-10.406L666.934 40.847c1.785-3.648 2.535-6.82 2.558-10.449 0-6.496-2.875-12.66-7.847-16.84-4.383-3.394-8.536-5.16-14.122-5.16H29.617c-3.769-.035-7.547.871-10.976 3.133A21.552 21.552 0 0 0 8.23 29.957c.184 3.894 1.145 8 2.879 10.89l309.114 535.981c.027.047.058.094.09.14a20.022 20.022 0 0 0 4.132 4.778 21.993 21.993 0 0 0 12.825 5.316c.531.047 1.062.078 1.589.082zM647.523 8.398h1.524-1.555.031zM339.18 480.933 103.477 72.398h471.738L339.18 480.933z" style="fill:#c1121c;fill-opacity:1;fill-rule:nonzero;stroke:none" transform="matrix(1.25 0 0 -1.25 0 743.623)"/><path d="M338.859 594.898c7.618 0 15.231-2.906 21.039-8.715a29.739 29.739 0 0 0 4.774-6.234l15.129-25.957h.07L673.086 45.754c.066-.118.113-.219.16-.301a29.763 29.763 0 0 0 3.461-7.996c4.25-15.871-5.172-32.188-21.039-36.442A29.89 29.89 0 0 0 647.824 0H29.758C13.328 0 0 13.328 0 29.758a29.626 29.626 0 0 0 3.934 14.773c.011.019.027.051.05.098l304.364 528.414c3.871 6.668 5.695 9.363 9.468 13.14 5.809 5.809 13.426 8.715 21.039 8.715h.004zm0-.398a29.261 29.261 0 0 1-20.754-8.598c-3.753-3.754-5.542-6.394-9.406-13.059L4.336 44.433c-.02-.035-.035-.066-.055-.097A29.209 29.209 0 0 1 .402 29.758C.402 13.543 13.543.402 29.758.402h618.066a29.24 29.24 0 0 1 7.739 1c15.66 4.195 24.953 20.293 20.757 35.949a29.243 29.243 0 0 1-3.425 7.91c-.055.098-.098.196-.153.293L379.641 553.593h-.071l-15.246 26.157a29.312 29.312 0 0 1-4.707 6.152c-5.73 5.731-13.242 8.598-20.758 8.598z" style="fill:#000;fill-opacity:1;fill-rule:nonzero;stroke:none" transform="matrix(1.25 0 0 -1.25 0 743.623)"/><path d="M318.879 366.82c0-13.164 10.66-23.84 23.84-23.84 13.16 0 23.836 10.676 23.836 23.84 0 13.176-10.676 23.852-23.836 23.852-13.18 0-23.84-10.676-23.84-23.852zm-11.926-70.914v-69.148h47.692v57.191l30.96-47.688c6.27-9.656 19.204-12.406 28.856-6.136l-58.672 90.347c-8.961 13.809-27.406 17.735-41.219 8.758a25.534 25.534 0 0 1-2.922-2.16l-40.027-33.57a17.9 17.9 0 0 1-6.379-13.692v-29.195c0-11.543 9.332-20.871 20.856-20.871v48.664l20.855 17.5zm23.84-87.113 56.293-103.68c6.273-11.57 20.75-15.863 32.32-9.563l-63.324 116.625a12.013 12.013 0 0 0-1.437 5.684v2.938h-47.692v-2.938a11.8 11.8 0 0 0-1.453-5.684l-47.32-87.195c-6.285-11.586-2.008-26.047 9.566-32.316" style="fill:#000;fill-opacity:1;fill-rule:nonzero;stroke:none" transform="matrix(1.25 0 0 -1.25 0 743.623)"/></svg>