<svg xmlns="http://www.w3.org/2000/svg" xml:space="preserve" width="847.159" height="743.623"><path d="M338.859 594.5c7.512 0 15.028-2.867 20.758-8.598a29.312 29.312 0 0 0 4.707-6.152l15.246-26.157h.071L672.742 45.554c.055-.097.098-.195.153-.293a29.368 29.368 0 0 0 3.425-7.91c4.196-15.656-5.097-31.754-20.757-35.949a29.24 29.24 0 0 0-7.739-1H29.758C13.543.402.402 13.543.402 29.758a29.209 29.209 0 0 0 3.879 14.578c.02.031.035.062.051.097l304.367 528.41c3.864 6.665 5.653 9.305 9.406 13.059a29.261 29.261 0 0 0 20.754 8.598z" style="fill:#fff;fill-opacity:1;fill-rule:nonzero;stroke:none" transform="matrix(1.25 0 0 -1.25 0 743.623)"/><path d="M338.859 587.144c7.125.051 14.95-3.59 18.782-10.406L666.934 40.847c1.785-3.648 2.535-6.82 2.558-10.449 0-6.496-2.875-12.66-7.847-16.84-4.383-3.394-8.536-5.16-14.122-5.16H29.617c-3.769-.035-7.547.871-10.976 3.133A21.552 21.552 0 0 0 8.23 29.957c.184 3.894 1.145 8 2.879 10.89l309.114 535.981c.027.047.058.094.09.14a20.022 20.022 0 0 0 4.132 4.778 21.993 21.993 0 0 0 12.825 5.316c.531.047 1.062.078 1.589.082zM647.523 8.398h1.524-1.555.031zM339.18 480.933 103.477 72.398h471.738L339.18 480.933z" style="fill:#c1121c;fill-opacity:1;fill-rule:nonzero;stroke:none" transform="matrix(1.25 0 0 -1.25 0 743.623)"/><path d="M338.859 594.898c7.618 0 15.231-2.906 21.039-8.715a29.739 29.739 0 0 0 4.774-6.234l15.129-25.957h.07L673.086 45.754c.066-.118.113-.219.16-.301a29.763 29.763 0 0 0 3.461-7.996c4.25-15.871-5.172-32.188-21.039-36.442A29.89 29.89 0 0 0 647.824 0H29.758C13.328 0 0 13.328 0 29.758a29.626 29.626 0 0 0 3.934 14.773c.011.019.027.051.05.098l304.364 528.414c3.871 6.668 5.695 9.363 9.468 13.14 5.809 5.809 13.426 8.715 21.039 8.715h.004zm0-.398a29.261 29.261 0 0 1-20.754-8.598c-3.753-3.754-5.542-6.394-9.406-13.059L4.336 44.433c-.02-.035-.035-.066-.055-.097A29.209 29.209 0 0 1 .402 29.758C.402 13.543 13.543.402 29.758.402h618.066a29.24 29.24 0 0 1 7.739 1c15.66 4.195 24.953 20.293 20.757 35.949a29.243 29.243 0 0 1-3.425 7.91c-.055.098-.098.196-.153.293L379.641 553.593h-.071l-15.246 26.157a29.312 29.312 0 0 1-4.707 6.152c-5.73 5.731-13.242 8.598-20.758 8.598z" style="fill:#000;fill-opacity:1;fill-rule:nonzero;stroke:none" transform="matrix(1.25 0 0 -1.25 0 743.623)"/><path d="M396.898 309.64c0-12.371-10.043-22.398-22.418-22.398-12.39 0-22.414 10.027-22.414 22.398 0 12.391 10.024 22.434 22.414 22.434 12.375 0 22.418-10.043 22.418-22.434zM345.652 88.894l18.696 110.582c.199 1.219.23 2.426.086 3.629l-6.196 52.621-43.89-26.355c-9.098-5.453-20.903-2.504-26.371 6.594l70.476 42.3c13.274-6.765 29.371-4.465 40.199 5.746l37.434-12.019c1.559-.492 2.887-1.606 3.676-3.059l21.195-39.379c-9.348-5.019-20.996-1.527-26.031 7.817l-9.641 17.89-22.695 7.309 6.398-54.336c.121-1.125.414-2.223.832-3.289l15.899-39.441 36.445-15.727c9.762-4.203 14.242-15.512 10.039-25.242l-60.047 23.961a6.339 6.339 0 0 0-3.492 3.383l-21.383 48.847-19.605-96.722c-2.055-10.153-11.801-16.856-22.028-15.11h.004zm-76.3 158.719c0-11.262-9.129-20.375-20.395-20.375-11.262 0-20.375 9.113-20.375 20.375 0 11.266 9.113 20.395 20.375 20.395 11.266 0 20.395-9.129 20.395-20.395zm-32.614-52.988-25.66-21.289c-5.672-4.696-13.98-4.325-19.203.882l45.219 45.235a30.514 30.514 0 0 1 28.734 2.656l30.156-6.691a4.072 4.072 0 0 0 2.766-2.145l15.449-30.883c-7.043-3.523-15.617-.679-19.156 6.379l-7.355 13.996H273.43l12.234-48.925 27.563-2.071c7.445-.57 13.191-6.765 13.191-14.226h-46.73c-1.36 0-2.645.679-3.399 1.804l-6.937 10.414-14.274-4.078v-42.824c0-7.633-6.012-13.906-13.644-14.262" style="fill:#000;fill-opacity:1;fill-rule:nonzero;stroke:none" transform="matrix(1.25 0 0 -1.25 0 743.623)"/></svg>