<svg xmlns="http://www.w3.org/2000/svg" xml:space="preserve" width="847.159" height="743.623"><defs><clipPath id="a" clipPathUnits="userSpaceOnUse"><path d="M0 0h639v561H0V0Z"/></clipPath><clipPath id="b" clipPathUnits="userSpaceOnUse"><path d="M0 0h639v561H0V0Z"/></clipPath></defs><path d="M338.859 594.5c7.512 0 15.028-2.867 20.758-8.598a29.345 29.345 0 0 0 4.707-6.152l15.246-26.157h.071L672.742 45.554c.055-.097.098-.195.153-.293a29.368 29.368 0 0 0 3.425-7.91c4.196-15.656-5.097-31.754-20.758-35.949a29.227 29.227 0 0 0-7.738-1H29.758C13.543.402.402 13.543.402 29.758a29.209 29.209 0 0 0 3.879 14.578c.02.031.035.062.051.097l304.367 528.41c3.863 6.665 5.653 9.305 9.406 13.059a29.261 29.261 0 0 0 20.754 8.598z" style="fill:#fff;fill-opacity:1;fill-rule:nonzero;stroke:none" transform="matrix(1.25 0 0 -1.25 0 743.623)"/><path d="M338.859 587.144c7.125.051 14.95-3.59 18.782-10.406L666.934 40.847c1.785-3.648 2.535-6.82 2.558-10.449 0-6.496-2.875-12.66-7.847-16.84-4.383-3.394-8.536-5.16-14.122-5.16H29.617c-3.769-.035-7.547.871-10.976 3.133A21.552 21.552 0 0 0 8.23 29.957c.184 3.894 1.145 8 2.879 10.89l309.114 535.981c.027.047.058.094.089.14.032.047.063.094.094.145a20.022 20.022 0 0 0 4.039 4.633 21.993 21.993 0 0 0 12.825 5.316c.531.047 1.062.078 1.589.082zM647.523 8.398h1.524-1.555.031zM339.18 480.933 103.477 72.398h471.738L339.18 480.933z" style="fill:#c1121c;fill-opacity:1;fill-rule:nonzero;stroke:none" transform="matrix(1.25 0 0 -1.25 0 743.623)"/><path d="M338.859 594.898c7.618 0 15.231-2.906 21.039-8.715a29.739 29.739 0 0 0 4.774-6.234l15.129-25.957h.07L673.086 45.754c.066-.118.113-.219.16-.301a29.763 29.763 0 0 0 3.461-7.996c4.25-15.871-5.172-32.188-21.039-36.442A29.89 29.89 0 0 0 647.824 0H29.758C13.328 0 0 13.328 0 29.758a29.626 29.626 0 0 0 3.934 14.773c.011.019.027.051.05.098l304.364 528.414c3.871 6.668 5.695 9.363 9.468 13.14 5.809 5.809 13.426 8.715 21.039 8.715h.004zm0-.398a29.261 29.261 0 0 1-20.754-8.598c-3.753-3.754-5.543-6.394-9.406-13.059L4.336 44.433c-.02-.035-.035-.066-.055-.097A29.209 29.209 0 0 1 .402 29.758C.402 13.543 13.543.402 29.758.402h618.066a29.227 29.227 0 0 1 7.738 1c15.661 4.195 24.954 20.293 20.758 35.949a29.243 29.243 0 0 1-3.425 7.91c-.055.098-.098.196-.153.293L379.641 553.593h-.071l-15.246 26.157a29.345 29.345 0 0 1-4.707 6.152c-5.73 5.731-13.242 8.598-20.758 8.598z" style="fill:#000;fill-opacity:1;fill-rule:nonzero;stroke:none" transform="matrix(1.25 0 0 -1.25 0 743.623)"/><path d="m343.148 153.695 8.614 14.27c6.445-3.125 14.215-.422 17.34 6.039.015.016.031.027.031.059l5.179 10.793-42.863-11.68-1.426 5.25a208.006 208.006 0 0 0-78.867-15.652 51.939 51.939 0 0 0-32.707-33.551l-14.738-5.063c-8.031-2.734-15.027-7.902-20.047-14.738l-10.883-14.84a41.392 41.392 0 0 0-20.527-14.914l2.605 15.672a10.387 10.387 0 0 1 10.504 5.484l16.758 32.094 10.461 7.375c12.773 6.637 19.352 21.168 15.902 35.137l-1.382 5.644a10.345 10.345 0 0 0 4.832 11.434l12.875 7.555a31.799 31.799 0 0 0 6.734 2.937l70.387 21.301a41.498 41.498 0 0 1 27.863 28.137l9.473 32.398a20.843 20.843 0 0 0-17.2 9.094l21.082 1.293-26.421 15.101a26.014 26.014 0 0 0-13.063 21.172 1.828 1.828 0 0 0 1.731 1.906 1.806 1.806 0 0 0 1.847-1.371l.336-1.25a20.75 20.75 0 0 1 10.707-13.355l1.496-.77a1.566 1.566 0 0 1 2.227 1.758l-2.457 10.215a1.569 1.569 0 0 0 1.164 1.875 1.542 1.542 0 0 0 1.746-.812l8.465-16.981a7.721 7.721 0 0 1 3.449-3.461l3.566-1.82a1.573 1.573 0 0 1 2.11.683c.16.321.219.7.113 1.063l-3.723 15.555a1.537 1.537 0 0 0 1.149 1.875 1.55 1.55 0 0 0 1.762-.813l9.238-18.551a18.185 18.185 0 0 1 10.969-9.281l30.32-9.227v-9.078l-27.266-7.812-8.058-61.192c-.801-6.226-3.477-12.031-7.668-16.718l39.793 6.461c2.109.32 4.117-1.106 4.465-3.231a4.062 4.062 0 0 0-.438-2.515l-14.418-26.219a26.038 26.038 0 0 0-19.914-13.297" style="fill:#000;fill-opacity:1;fill-rule:nonzero;stroke:none" transform="matrix(-1.32584 0 0 -1.32584 845.458 744.395)"/></svg>