<svg xmlns="http://www.w3.org/2000/svg" xml:space="preserve" width="847.159" height="743.623"><path d="M338.859 594.5c7.512 0 15.028-2.867 20.758-8.598a29.345 29.345 0 0 0 4.707-6.152l15.246-26.157h.071L672.742 45.554c.055-.097.098-.195.153-.293a29.368 29.368 0 0 0 3.425-7.91c4.196-15.656-5.097-31.754-20.758-35.949a29.227 29.227 0 0 0-7.738-1H29.758C13.543.402.402 13.543.402 29.758a29.209 29.209 0 0 0 3.879 14.578c.02.031.035.062.051.097l304.367 528.41c3.863 6.665 5.653 9.305 9.406 13.059a29.261 29.261 0 0 0 20.754 8.598z" style="fill:#fff;fill-opacity:1;fill-rule:nonzero;stroke:none" transform="matrix(1.25 0 0 -1.25 0 743.623)"/><path d="M338.859 587.144c7.125.051 14.95-3.59 18.782-10.406L666.934 40.847c1.785-3.648 2.535-6.82 2.558-10.449 0-6.496-2.875-12.66-7.847-16.84-4.383-3.394-8.536-5.16-14.122-5.16H29.617c-3.769-.035-7.547.871-10.976 3.133A21.552 21.552 0 0 0 8.23 29.957c.184 3.894 1.145 8 2.879 10.89l309.114 535.981c.027.047.058.094.089.14.032.047.063.094.094.145a20.022 20.022 0 0 0 4.039 4.633 21.993 21.993 0 0 0 12.825 5.316c.531.047 1.062.078 1.589.082zM647.523 8.398h1.524-1.555.031zM339.18 480.933 103.477 72.398h471.738L339.18 480.933z" style="fill:#c1121c;fill-opacity:1;fill-rule:nonzero;stroke:none" transform="matrix(1.25 0 0 -1.25 0 743.623)"/><path d="M338.859 594.898c7.618 0 15.231-2.906 21.039-8.715a29.739 29.739 0 0 0 4.774-6.234l15.129-25.957h.07L673.086 45.754c.066-.118.113-.219.16-.301a29.763 29.763 0 0 0 3.461-7.996c4.25-15.871-5.172-32.188-21.039-36.442A29.89 29.89 0 0 0 647.824 0H29.758C13.328 0 0 13.328 0 29.758a29.626 29.626 0 0 0 3.934 14.773c.011.019.027.051.05.098l304.364 528.414c3.871 6.668 5.695 9.363 9.468 13.14 5.809 5.809 13.426 8.715 21.039 8.715h.004zm0-.398a29.261 29.261 0 0 1-20.754-8.598c-3.753-3.754-5.543-6.394-9.406-13.059L4.336 44.433c-.02-.035-.035-.066-.055-.097A29.209 29.209 0 0 1 .402 29.758C.402 13.543 13.543.402 29.758.402h618.066a29.227 29.227 0 0 1 7.738 1c15.661 4.195 24.954 20.293 20.758 35.949a29.243 29.243 0 0 1-3.425 7.91c-.055.098-.098.196-.153.293L379.641 553.593h-.071l-15.246 26.157a29.345 29.345 0 0 1-4.707 6.152c-5.73 5.731-13.242 8.598-20.758 8.598z" style="fill:#000;fill-opacity:1;fill-rule:nonzero;stroke:none" transform="matrix(1.25 0 0 -1.25 0 743.623)"/><path d="M262.961 121.168c-17.906 0-32.434 14.547-32.434 32.449v.387l.629 53.004a42.4 42.4 0 0 0 .817 7.765l3.312 16.996a41.858 41.858 0 0 0 2.328 7.828l15.75 39.172a10.797 10.797 0 0 0 10.028 6.778h47.398a29.693 29.693 0 0 1-23.113 21.617h-14.281a3.257 3.257 0 0 0-3.254 3.269 3.25 3.25 0 0 0 3.254 3.235h86.503c1.786 0 3.25-1.465 3.25-3.235 0-1.804-1.464-3.269-3.25-3.269h-14.3c-11.219-2.156-20.2-10.571-23.114-21.617h26.598a27 27 0 0 0 24.543-15.715l5.133-11.098c23.652-51.277 72.297-86.578 128.387-93.16l.816-.09a3.8 3.8 0 0 0 3.344-3.762v-35.148c0-2.988-2.438-5.406-5.41-5.406H262.961zm-32.836-32.453v16.226h21.633v10.832h32.437v-10.832h48.66v10.832h178.45v-10.832c-58.063 0-110.59-6.363-133.813-16.226" style="fill:#000;fill-opacity:1;fill-rule:nonzero;stroke:none" transform="matrix(1.25 0 0 -1.25 0 743.623)"/><path d="M303.484 307.164a36.14 36.14 0 0 0 13.161-18.457 36.133 36.133 0 0 0 13.16 18.457h-26.321zm193.75-145.903a178.53 178.53 0 0 1 8.661-1.125v-19.308c-2.895.199-5.778.449-8.661.711v19.722zm-16.222 3.235a183.082 183.082 0 0 1 10.832-2.313v-20.062c-3.621.418-7.227.91-10.832 1.465v20.91zm-19.465 5.902a190.51 190.51 0 0 1 12.976-4.207v-21.527a336.175 336.175 0 0 0-12.976 2.621v23.113zm-22.711 10.047c4.93-2.59 9.984-4.961 15.148-7.105v-24.239a278.793 278.793 0 0 0-15.148 4.332v27.012zm-25.949 16.641a182.646 182.646 0 0 1 17.304-11.774v-28.984a276.091 276.091 0 0 0-17.304 6.812v33.946zm-29.215 28.535a173.517 173.517 0 0 1 19.476-20.461v-37.535a261.08 261.08 0 0 0-17.011 9.105l-2.465 48.891zm-126.75 42.976a6.467 6.467 0 0 0 5.976 3.977h83.7a6.452 6.452 0 0 0 5.98-3.977l12.543-30.277c1.387-3.297-.168-7.105-3.469-8.492a6.425 6.425 0 0 0-2.511-.524H250.355a6.487 6.487 0 0 0-6.484 6.489c0 .879.168 1.726.508 2.527l12.543 30.277zm97.582-93.359c0-5.965-4.852-10.805-10.832-10.805-5.965 0-10.801 4.84-10.801 10.805 0 5.977 4.836 10.816 10.801 10.816 5.98 0 10.832-4.839 10.832-10.816zm-86.52 0c0-5.965-4.855-10.805-10.816-10.805-5.98 0-10.816 4.84-10.816 10.805a10.81 10.81 0 0 0 10.816 10.816c5.961 0 10.816-4.839 10.816-10.816" style="fill:#fff;fill-opacity:1;fill-rule:nonzero;stroke:none" transform="matrix(1.25 0 0 -1.25 0 743.623)"/></svg>