<svg xmlns="http://www.w3.org/2000/svg" xml:space="preserve" width="847.159" height="743.623"><path d="M338.859.398c7.516 0 15.028 2.867 20.758 8.598a29.345 29.345 0 0 1 4.707 6.152l15.246 26.156h.071l293.101 508.039c.055.098.098.196.153.293a29.375 29.375 0 0 1 3.425 7.911c4.196 15.656-5.097 31.753-20.758 35.949a29.227 29.227 0 0 1-7.738 1H29.758c-16.215 0-29.356-13.141-29.356-29.356a29.209 29.209 0 0 1 3.879-14.578c.02-.031.035-.062.055-.097L308.699 22.054c3.863-6.664 5.653-9.304 9.406-13.058A29.261 29.261 0 0 1 338.859.398z" style="fill:#fff;fill-opacity:1;fill-rule:nonzero;stroke:none" transform="matrix(1.25 0 0 -1.25 0 743.623)"/><path d="M338.859 7.754c7.125-.051 14.95 3.589 18.782 10.406l309.293 535.89c1.785 3.649 2.535 6.821 2.558 10.45 0 6.496-2.875 12.66-7.847 16.84-4.383 3.394-8.536 5.16-14.122 5.16H29.617c-3.769.035-7.547-.871-10.976-3.133A21.554 21.554 0 0 1 8.23 564.941c.184-3.894 1.145-8 2.879-10.891L320.223 18.07c.027-.047.062-.094.089-.141a2.76 2.76 0 0 0 .094-.144 20.022 20.022 0 0 1 4.039-4.633 21.986 21.986 0 0 1 12.825-5.316 19.754 19.754 0 0 1 1.589-.082zM647.523 586.5h1.524-1.555.031zM339.18 113.965 103.477 522.5h471.738L339.18 113.965Z" style="fill:#c1121c;fill-opacity:1;fill-rule:nonzero;stroke:none" transform="matrix(1.25 0 0 -1.25 0 743.623)"/><path d="M338.859 0c7.618 0 15.231 2.906 21.039 8.715a29.713 29.713 0 0 1 4.774 6.234l15.129 25.957h.07l293.215 508.238c.066.117.113.219.16.301a29.763 29.763 0 0 1 3.461 7.996c4.25 15.871-5.172 32.192-21.039 36.442a29.89 29.89 0 0 1-7.844 1.015H29.758C13.328 594.898 0 581.57 0 565.14a29.624 29.624 0 0 1 3.934-14.773c.011-.024.027-.055.054-.102L308.352 21.851c3.871-6.664 5.695-9.363 9.468-13.136C323.629 2.906 331.246 0 338.859 0Zm0 .398a29.261 29.261 0 0 0-20.754 8.598c-3.753 3.754-5.543 6.394-9.406 13.058L4.336 550.465c-.02.035-.035.066-.055.097A29.209 29.209 0 0 0 .402 565.14c0 16.215 13.141 29.356 29.356 29.356h618.066a29.227 29.227 0 0 0 7.738-1c15.661-4.196 24.954-20.293 20.758-35.949a29.375 29.375 0 0 0-3.425-7.911c-.055-.097-.098-.195-.153-.293L379.641 41.304h-.071l-15.246-26.156a29.345 29.345 0 0 0-4.707-6.152c-5.73-5.731-13.242-8.598-20.758-8.598z" style="fill:#000;fill-opacity:1;fill-rule:nonzero;stroke:none" transform="matrix(1.25 0 0 -1.25 0 743.623)"/></svg>