<svg xmlns="http://www.w3.org/2000/svg" xml:space="preserve" width="901" height="901"><path d="M226.184.402a36.062 36.062 0 0 0-25.465 10.554L10.926 200.999A36.039 36.039 0 0 0 .398 226.484v268.75a36.073 36.073 0 0 0 10.528 25.484l189.793 190.043c6.761 6.75 15.922 9.641 25.465 9.641h268.433c9.547 0 18.707-2.891 25.449-9.641l189.809-190.043a36.085 36.085 0 0 0 10.523-25.484v-268.75a36.05 36.05 0 0 0-10.523-25.485L520.066 10.956A35.984 35.984 0 0 0 494.617.402H226.184z" style="fill:#fff;fill-opacity:1;fill-rule:nonzero;stroke:none" transform="matrix(1.25 0 0 -1.25 0 901)"/><path d="M689.793 496.566 496.84 689.757H223.961L31.008 496.566V223.355L223.961 30.163H496.84l192.953 193.192v273.211z" style="fill:#c1121c;fill-opacity:1;fill-rule:nonzero;stroke:none" transform="matrix(1.25 0 0 -1.25 0 901)"/><path d="M544.375 445.968v-76.664h21.258s21.465.004 21.465 21.34v34.086s-.102 21.238-21.465 21.238h-21.258zm-34.039-204.375v238.496h55.297c55.586 0 55.293-55.359 55.293-55.359v-34.086s.293-55.36-55.293-55.36h-21.258v-93.691h-34.039zm-114.832 55.359c0-12.937 10.484-23.429 23.402-23.429 12.922 0 23.387 10.492 23.387 23.429V424.73c0 12.933-10.465 23.414-23.387 23.414-12.918 0-23.402-10.481-23.402-23.414V296.952zm-34.059 0V424.73c0 31.738 25.727 57.496 57.461 57.496 31.703 0 57.41-25.758 57.41-57.496V296.952c0-31.742-25.707-57.476-57.41-57.476-31.734 0-57.461 25.734-57.461 57.476zm-91.441-55.359v204.375h-40.399v34.121h114.833v-34.121h-40.415V241.593h-34.019zM99.875 309.718h34.023v-12.766c0-12.937 10.485-23.429 23.383-23.429h2.133c12.922 0 23.387 10.492 23.387 23.429v25.551a23.413 23.413 0 0 1-14.606 21.711l-30.328 12.301c-21.683 8.808-35.859 29.883-35.859 53.297v14.918c0 31.738 25.707 57.496 57.406 57.496 31.723 0 57.426-25.758 57.426-57.496v-12.785h-34.039v12.785c0 12.933-10.465 23.414-23.387 23.414s-23.383-10.481-23.383-23.414v-14.918c0-9.532 5.77-18.114 14.602-21.692l30.347-12.32c21.684-8.793 35.86-29.867 35.86-53.297v-25.551c0-31.742-25.703-57.476-57.426-57.476h-2.133c-31.699 0-57.406 25.734-57.406 57.476" style="fill:#fff;fill-opacity:1;fill-rule:nonzero;stroke:none" transform="matrix(1.25 0 0 -1.25 0 901)"/><path d="M226.184 720.8c-9.622 0-18.899-2.918-25.746-9.758L10.641 520.999A36.48 36.48 0 0 1 0 495.234v-268.75a36.448 36.448 0 0 1 10.641-25.766L200.438 10.675A36.448 36.448 0 0 1 226.184-.001h268.433a36.39 36.39 0 0 1 25.735 10.676l189.804 190.043a36.435 36.435 0 0 1 10.645 25.766v268.75c0 9.66-3.824 18.933-10.645 25.765L520.352 711.042c-6.832 6.84-16.11 9.758-25.735 9.758H226.184zm0-.398h268.433c9.547 0 18.707-2.887 25.453-9.641l189.805-190.043a36.085 36.085 0 0 0 10.523-25.484v-268.75a36.05 36.05 0 0 0-10.523-25.485L520.07 10.956A36 36 0 0 0 494.617.402H226.184a36.062 36.062 0 0 0-25.465 10.554L10.926 200.999A36.039 36.039 0 0 0 .398 226.484v268.75a36.073 36.073 0 0 0 10.528 25.484l189.793 190.043c6.761 6.754 15.922 9.641 25.465 9.641z" style="fill:#000;fill-opacity:1;fill-rule:nonzero;stroke:none" transform="matrix(1.25 0 0 -1.25 0 901)"/></svg>