<svg xmlns="http://www.w3.org/2000/svg" xml:space="preserve" width="586.262" height="586.262"><path d="M437.367 468.609c17.219 0 31.18-13.961 31.18-31.179l.062-405.785c0-17.223-13.961-31.184-31.179-31.184L31.645.398C14.422.398.461 14.359.461 31.582L.398 437.367c0 17.223 13.961 31.18 31.184 31.18l405.785.062z" style="fill:#fff;fill-opacity:1;fill-rule:nonzero;stroke:#000;stroke-width:.80000001;stroke-linecap:butt;stroke-linejoin:miter;stroke-miterlimit:4;stroke-dasharray:none;stroke-opacity:1" transform="matrix(1.25 0 0 1.25 0 0)"/><path d="M31.582 454.949c-9.695 0-17.582-7.886-17.582-17.582l.063-405.785C14.063 21.887 21.949 14 31.645 14l405.781.063c9.699 0 17.582 7.886 17.582 17.582l-.063 405.781c0 9.699-7.882 17.582-17.578 17.582l-405.785-.059Z" style="fill:none;stroke:#000;stroke-width:11.19999981;stroke-linecap:butt;stroke-linejoin:miter;stroke-miterlimit:4;stroke-dasharray:none;stroke-opacity:1" transform="matrix(1.25 0 0 1.25 0 0)"/><path d="M382.516 278.506c0-81.782-66.297-148.082-148.082-148.082-81.782 0-148.082 66.3-148.082 148.082 0 81.785 66.3 148.082 148.082 148.082 81.785 0 148.082-66.297 148.082-148.082z" style="fill:#c1121c;fill-opacity:1;fill-rule:nonzero;stroke:none" transform="matrix(1.25 0 0 -1.25 0 586.262)"/><path d="M343.547 278.506c0-60.258-48.852-109.11-109.113-109.11-60.258 0-109.11 48.852-109.11 109.11 0 60.261 48.852 109.109 109.11 109.109 60.261 0 109.113-48.848 109.113-109.109z" style="fill:#fff;fill-opacity:1;fill-rule:nonzero;stroke:none" transform="matrix(1.25 0 0 -1.25 0 586.262)"/><path d="M133.508 300.599h6.625V272.15a8.961 8.961 0 0 1 8.961-8.961c4.953 0 8.965 4.012 8.965 8.961v28.449h6.625V272.15c0-8.605-6.981-15.586-15.59-15.586-8.606 0-15.586 6.981-15.586 15.586v28.449zm39.746-43.644v31.176h6.234v-3.52a10.525 10.525 0 0 0 16.668-.387 11.693 11.693 0 0 0 9.051 4.293c6.457 0 11.691-5.234 11.691-11.687v-19.875h-6.234v19.094a6.234 6.234 0 0 1-6.234 6.234 6.232 6.232 0 0 1-6.235-6.234v-19.094h-6.234v19.094a6.234 6.234 0 0 1-6.234 6.234 6.235 6.235 0 0 1-6.239-6.234v-19.094h-6.234zm59.621 0-9.742 31.176h6.625l5.844-21.825 7.019 21.825h4.676l7.012-21.825 5.847 21.825h6.621l-9.738-31.176h-5.457l-6.625 21.824-6.621-21.824h-5.461zm64.301 13.25h-19.485v-.781a6.622 6.622 0 0 1 4.164-6.149 8.674 8.674 0 0 1 3.239-.625 8.726 8.726 0 0 1 6.617 3.043l4.734-4.062a14.967 14.967 0 0 0-16.906-4.145 12.859 12.859 0 0 0-8.086 11.938v6.238c0 7.102 5.758 12.859 12.86 12.859 7.101 0 12.863-5.757 12.863-12.859v-5.457zm-19.488 5.453h13.25a6.625 6.625 0 0 1-13.25 0zm38.968-18.703h-3.894a7.016 7.016 0 0 0-7.016 7.016v36.628h6.234v-35.851a1.95 1.95 0 0 1 1.95-1.949h2.726v-5.844zm18.707 0h-3.898a7.012 7.012 0 0 0-7.012 7.016v19.093h-3.121v5.067h3.121v9.351h6.231v-9.351h4.679v-5.067h-4.679v-18.316c0-1.074.875-1.949 1.949-1.949h2.73v-5.844zM125.805 42.154v8.176l29.785 48.476h-28.617v8.762h40.882v-7.59l-29.789-48.476h29.789v-9.348h-42.05zm51.394 22.777v19.86c0 12.898 10.461 23.359 23.364 23.359 12.902 0 23.359-10.461 23.359-23.359v-19.86c0-12.902-10.457-23.359-23.359-23.359-12.903 0-23.364 10.457-23.364 23.359zm9.93 0c0-7.417 6.016-13.433 13.434-13.433 7.417 0 13.433 6.016 13.433 13.433v19.86c0 7.418-6.016 13.43-13.433 13.43-7.418 0-13.434-6.012-13.434-13.43v-19.86zm49.644-22.777v65.414h9.344l29.785-46.722v46.722h9.93V42.154h-9.344l-29.785 46.723V42.154h-9.93zm64.243 0v65.414h42.05v-9.344h-32.121V79.533h27.45v-8.758h-27.45V51.502h32.121v-9.348h-42.05z" style="fill:#000;fill-opacity:1;fill-rule:nonzero;stroke:none" transform="matrix(1.25 0 0 -1.25 0 586.262)"/></svg>