<svg xmlns="http://www.w3.org/2000/svg" xml:space="preserve" width="600.995" height="600.995"><path d="M480.398 240.398c0-132.551-107.449-240-240-240-132.55 0-240 107.449-240 240 0 132.55 107.45 240 240 240 132.551 0 240-107.45 240-240z" style="fill:#fff;fill-opacity:1;fill-rule:nonzero;stroke:none" transform="matrix(1.25 0 0 -1.25 0 600.995)"/><path d="M240.398 480.796C107.633 480.796 0 373.163 0 240.398 0 107.632 107.633-.001 240.398-.001c132.766 0 240.399 107.633 240.399 240.399 0 132.765-107.633 240.398-240.399 240.398zm0-.398c132.551 0 240-107.45 240-240 0-132.551-107.449-240-240-240-132.55 0-240 107.449-240 240 0 132.55 107.45 240 240 240z" style="fill:#000;fill-opacity:1;fill-rule:nonzero;stroke:none" transform="matrix(1.25 0 0 -1.25 0 600.995)"/><path d="M240.398 472.398c-127.746 0-232-104.254-232-232 0-127.747 104.254-232 232-232 127.747 0 232 104.253 232 232 0 127.746-104.253 232-232 232zm0-64.321c92.989 0 167.68-74.691 167.68-167.679 0-92.989-74.691-167.68-167.68-167.68-92.988 0-167.679 74.691-167.679 167.68 0 92.988 74.691 167.679 167.679 167.679z" style="fill:#c1121c;fill-opacity:1;fill-rule:nonzero;stroke:none" transform="matrix(1.25 0 0 -1.25 0 600.995)"/><path d="M23.832 456.511v-.024h-.023l.023.024z" style="fill:#000;fill-opacity:1;fill-rule:nonzero;stroke:none" transform="matrix(1.25 0 0 -1.25 0 600.995)"/><path d="M23.809 456.511h.023v-.023h-.023v.023z" style="fill:#000;fill-opacity:1;fill-rule:nonzero;stroke:none" transform="matrix(1.25 0 0 -1.25 0 600.995)"/><path d="M23.809 456.487v.024l.023-.024h-.023zm.023 0-.023.024v-.024h.023z" style="fill:#000;fill-opacity:1;fill-rule:nonzero;stroke:none" transform="matrix(1.25 0 0 -1.25 0 600.995)"/><path d="M23.859 456.487h-.05.023v.024l.027-.024z" style="fill:#000;fill-opacity:1;fill-rule:nonzero;stroke:none" transform="matrix(1.25 0 0 -1.25 0 600.995)"/><path d="M23.809 456.487v.024-.024l.023.024-.023-.024z" style="fill:#000;fill-opacity:1;fill-rule:nonzero;stroke:none" transform="matrix(1.25 0 0 -1.25 0 600.995)"/><path d="M23.809 456.511h.023v-.023h-.023v.023zM23.859 456.511v-.047h-.05l.05.047z" style="fill:#000;fill-opacity:1;fill-rule:nonzero;stroke:none" transform="matrix(1.25 0 0 -1.25 0 600.995)"/><path d="M23.809 456.511h.051v-.047h-.051v.047z" style="fill:#000;fill-opacity:1;fill-rule:nonzero;stroke:none" transform="matrix(1.25 0 0 -1.25 0 600.995)"/><path d="M23.809 456.464v.047l.05-.047h-.05zm.05 0-.05.047v-.047h.05z" style="fill:#000;fill-opacity:1;fill-rule:nonzero;stroke:none" transform="matrix(1.25 0 0 -1.25 0 600.995)"/><path d="M23.859 456.464h-.05.023v.047l.027-.047z" style="fill:#000;fill-opacity:1;fill-rule:nonzero;stroke:none" transform="matrix(1.25 0 0 -1.25 0 600.995)"/><path d="M23.809 456.464v.047-.047l.05.047-.05-.047z" style="fill:#000;fill-opacity:1;fill-rule:nonzero;stroke:none" transform="matrix(1.25 0 0 -1.25 0 600.995)"/><path d="M23.809 456.511h.051v-.047h-.051v.047z" style="fill:#000;fill-opacity:1;fill-rule:nonzero;stroke:none" transform="matrix(1.25 0 0 -1.25 0 600.995)"/><path d="M23.859 456.511v-.047h-.05l.05.047z" style="fill:#000;fill-opacity:1;fill-rule:nonzero;stroke:none" transform="matrix(1.25 0 0 -1.25 0 600.995)"/><path d="M23.809 456.511h.051v-.047h-.051v.047z" style="fill:#000;fill-opacity:1;fill-rule:nonzero;stroke:none" transform="matrix(1.25 0 0 -1.25 0 600.995)"/><path d="M23.809 456.464v.047l.05-.047h-.05zm.05 0-.05.047v-.047h.05z" style="fill:#000;fill-opacity:1;fill-rule:nonzero;stroke:none" transform="matrix(1.25 0 0 -1.25 0 600.995)"/><path d="M23.859 456.464h-.05.023v.047l.027-.047z" style="fill:#000;fill-opacity:1;fill-rule:nonzero;stroke:none" transform="matrix(1.25 0 0 -1.25 0 600.995)"/><path d="M23.809 456.464v.047-.047l.05.047-.05-.047z" style="fill:#000;fill-opacity:1;fill-rule:nonzero;stroke:none" transform="matrix(1.25 0 0 -1.25 0 600.995)"/><path d="M23.809 456.511h.051v-.047h-.051v.047z" style="fill:#000;fill-opacity:1;fill-rule:nonzero;stroke:none" transform="matrix(1.25 0 0 -1.25 0 600.995)"/><path d="M23.859 456.511v-.047h-.05l.05.047z" style="fill:#000;fill-opacity:1;fill-rule:nonzero;stroke:none" transform="matrix(1.25 0 0 -1.25 0 600.995)"/><path d="M23.809 456.511h.051v-.047h-.051v.047z" style="fill:#000;fill-opacity:1;fill-rule:nonzero;stroke:none" transform="matrix(1.25 0 0 -1.25 0 600.995)"/><path d="M23.809 456.464v.047l.05-.047h-.05zm.05 0-.05.047v-.047h.05z" style="fill:#000;fill-opacity:1;fill-rule:nonzero;stroke:none" transform="matrix(1.25 0 0 -1.25 0 600.995)"/><path d="M23.859 456.464h-.05.023v.047l.027-.047z" style="fill:#000;fill-opacity:1;fill-rule:nonzero;stroke:none" transform="matrix(1.25 0 0 -1.25 0 600.995)"/><path d="M23.809 456.464v.047-.047l.05.047-.05-.047z" style="fill:#000;fill-opacity:1;fill-rule:nonzero;stroke:none" transform="matrix(1.25 0 0 -1.25 0 600.995)"/><path d="M23.809 456.511h.051v-.047h-.051v.047zM276.453 196.577c0-15.496 12.563-28.047 28.047-28.047s28.047 12.551 28.047 28.047v87.641c0 15.496-12.563 28.047-28.047 28.047s-28.047-12.551-28.047-28.047v-87.641zm-28.047 0v87.641c0 30.98 25.117 56.094 56.094 56.094 30.98 0 56.094-25.114 56.094-56.094v-87.641c0-30.98-25.114-56.094-56.094-56.094-30.977 0-56.094 25.114-56.094 56.094zm-114.187-54.34 66.609 168.286H148.25v-28.047h-28.047v56.093h112.176v-26.304L165.77 142.237" style="fill:#000;fill-opacity:1;fill-rule:nonzero;stroke:none" transform="matrix(1.25 0 0 -1.25 0 600.995)"/></svg>