<svg xmlns="http://www.w3.org/2000/svg" xml:space="preserve" width="600.995" height="600.995"><path d="M450.375 225.375c0 124.266-100.734 225-225 225s-225-100.734-225-225 100.734-225 225-225 225 100.734 225 225z" style="fill:#fff;fill-opacity:1;fill-rule:nonzero;stroke:none" transform="matrix(1.33333 0 0 1.33333 0 0)"/><path d="M225.375 0C100.906 0 0 100.906 0 225.375 0 349.84 100.906 450.746 225.375 450.746c124.465 0 225.371-100.906 225.371-225.371C450.746 100.906 349.84 0 225.375 0Zm0 .375c124.266 0 225 100.734 225 225s-100.734 225-225 225-225-100.734-225-225 100.734-225 225-225z" style="fill:#000;fill-opacity:1;fill-rule:nonzero;stroke:none" transform="matrix(1.33333 0 0 1.33333 0 0)"/><path d="M225.375 7.875c-119.766 0-217.5 97.734-217.5 217.5 0 119.762 97.734 217.5 217.5 217.5 119.762 0 217.5-97.738 217.5-217.5 0-119.766-97.738-217.5-217.5-217.5zm0 60.301c87.176 0 157.199 70.019 157.199 157.199 0 87.176-70.023 157.199-157.199 157.199-87.18 0-157.199-70.023-157.199-157.199 0-87.18 70.019-157.199 157.199-157.199z" style="fill:#c1121c;fill-opacity:1;fill-rule:nonzero;stroke:none" transform="matrix(1.33333 0 0 1.33333 0 0)"/><path d="M22.344 22.766v.023h-.024Z" style="fill:#000;fill-opacity:1;fill-rule:nonzero;stroke:none" transform="matrix(1.33333 0 0 1.33333 0 0)"/><path d="M22.32 22.766h.023v.023h-.023Z" style="fill:#000;fill-opacity:1;fill-rule:nonzero;stroke:none" transform="matrix(1.33333 0 0 1.33333 0 0)"/><path d="M22.32 22.789v-.023l.024.023zm.024 0-.024-.023v.023z" style="fill:#000;fill-opacity:1;fill-rule:nonzero;stroke:none" transform="matrix(1.33333 0 0 1.33333 0 0)"/><path d="M22.367 22.789h-.047.024v-.023Z" style="fill:#000;fill-opacity:1;fill-rule:nonzero;stroke:none" transform="matrix(1.33333 0 0 1.33333 0 0)"/><path d="M22.32 22.789v-.023.023l.024-.023z" style="fill:#000;fill-opacity:1;fill-rule:nonzero;stroke:none" transform="matrix(1.33333 0 0 1.33333 0 0)"/><path d="M22.32 22.766h.023v.023h-.023ZM22.367 22.766v.046h-.047Z" style="fill:#000;fill-opacity:1;fill-rule:nonzero;stroke:none" transform="matrix(1.33333 0 0 1.33333 0 0)"/><path d="M22.32 22.766h.047v.047h-.047Z" style="fill:#000;fill-opacity:1;fill-rule:nonzero;stroke:none" transform="matrix(1.33333 0 0 1.33333 0 0)"/><path d="M22.32 22.812v-.046l.047.046zm.047 0-.047-.046v.046z" style="fill:#000;fill-opacity:1;fill-rule:nonzero;stroke:none" transform="matrix(1.33333 0 0 1.33333 0 0)"/><path d="M22.367 22.812h-.047.024v-.046Z" style="fill:#000;fill-opacity:1;fill-rule:nonzero;stroke:none" transform="matrix(1.33333 0 0 1.33333 0 0)"/><path d="M22.32 22.812v-.046.046l.047-.046z" style="fill:#000;fill-opacity:1;fill-rule:nonzero;stroke:none" transform="matrix(1.33333 0 0 1.33333 0 0)"/><path d="M22.32 22.766h.047v.047h-.047Z" style="fill:#000;fill-opacity:1;fill-rule:nonzero;stroke:none" transform="matrix(1.33333 0 0 1.33333 0 0)"/><path d="M22.367 22.766v.046h-.047Z" style="fill:#000;fill-opacity:1;fill-rule:nonzero;stroke:none" transform="matrix(1.33333 0 0 1.33333 0 0)"/><path d="M22.32 22.766h.047v.047h-.047Z" style="fill:#000;fill-opacity:1;fill-rule:nonzero;stroke:none" transform="matrix(1.33333 0 0 1.33333 0 0)"/><path d="M22.32 22.812v-.046l.047.046zm.047 0-.047-.046v.046z" style="fill:#000;fill-opacity:1;fill-rule:nonzero;stroke:none" transform="matrix(1.33333 0 0 1.33333 0 0)"/><path d="M22.367 22.812h-.047.024v-.046Z" style="fill:#000;fill-opacity:1;fill-rule:nonzero;stroke:none" transform="matrix(1.33333 0 0 1.33333 0 0)"/><path d="M22.32 22.812v-.046.046l.047-.046z" style="fill:#000;fill-opacity:1;fill-rule:nonzero;stroke:none" transform="matrix(1.33333 0 0 1.33333 0 0)"/><path d="M22.32 22.766h.047v.047h-.047Z" style="fill:#000;fill-opacity:1;fill-rule:nonzero;stroke:none" transform="matrix(1.33333 0 0 1.33333 0 0)"/><path d="M22.367 22.766v.046h-.047Z" style="fill:#000;fill-opacity:1;fill-rule:nonzero;stroke:none" transform="matrix(1.33333 0 0 1.33333 0 0)"/><path d="M22.32 22.766h.047v.047h-.047Z" style="fill:#000;fill-opacity:1;fill-rule:nonzero;stroke:none" transform="matrix(1.33333 0 0 1.33333 0 0)"/><path d="M22.32 22.812v-.046l.047.046zm.047 0-.047-.046v.046z" style="fill:#000;fill-opacity:1;fill-rule:nonzero;stroke:none" transform="matrix(1.33333 0 0 1.33333 0 0)"/><path d="M22.367 22.812h-.047.024v-.046Z" style="fill:#000;fill-opacity:1;fill-rule:nonzero;stroke:none" transform="matrix(1.33333 0 0 1.33333 0 0)"/><path d="M22.32 22.812v-.046.046l.047-.046z" style="fill:#000;fill-opacity:1;fill-rule:nonzero;stroke:none" transform="matrix(1.33333 0 0 1.33333 0 0)"/><path d="M22.32 22.766h.047v.047h-.047ZM139.512 184.508c0 8.687 2.718 15.265 8.156 19.734 5.437 4.469 11.531 6.703 18.281 6.703 6.75 0 12.844-2.234 18.281-6.703 5.438-4.469 8.157-11.047 8.157-19.734 0-8.602-2.719-15.16-8.157-19.672-5.437-4.508-11.531-6.766-18.281-6.766-6.75 0-12.844 2.258-18.281 6.766-5.438 4.512-8.156 11.07-8.156 19.672zm-29.735 79.328c0-17.969 7.25-31.801 21.75-41.5-5.48-4.895-9.929-10.313-13.343-16.25-3.418-5.945-5.125-12.973-5.125-21.078 0-14.844 5.082-27.453 15.25-37.828 10.164-10.375 22.711-15.563 37.64-15.563 14.926 0 27.473 5.188 37.641 15.563 10.164 10.375 15.25 22.984 15.25 37.828 0 8.105-1.731 15.133-5.188 21.078-3.461 5.937-7.851 11.355-13.172 16.25 14.426 9.781 21.641 23.617 21.641 41.5 0 16.367-5.547 29.672-16.641 39.922-11.093 10.242-24.273 15.359-39.531 15.359-15.355 0-28.558-5.117-39.609-15.359-11.043-10.25-16.563-23.555-16.563-39.922zm26.438-.25c0 8.43 2.973 15.406 8.922 20.937 5.945 5.524 12.883 8.282 20.812 8.282 7.844 0 14.781-2.758 20.813-8.282 6.031-5.531 9.047-12.507 9.047-20.937 0-8.438-3.016-15.438-9.047-21-6.032-5.57-12.969-8.359-20.813-8.359-7.929 0-14.867 2.789-20.812 8.359-5.949 5.562-8.922 12.562-8.922 21zM314.531 264.586v-78.313c0-8.851-2.386-15.765-7.156-20.734-4.762-4.977-11.023-7.469-18.781-7.469-7.844 0-14.133 2.492-18.86 7.469-4.718 4.969-7.078 11.883-7.078 20.734v78.313c0 8.949 2.36 15.891 7.078 20.828 4.727 4.93 11.016 7.391 18.86 7.391 7.758 0 14.019-2.461 18.781-7.391 4.77-4.937 7.156-11.879 7.156-20.828zm-78.312 1.531v-81.359c0-16.946 5.312-30.039 15.937-39.281 10.625-9.239 22.77-13.86 36.438-13.86 13.582 0 25.707 4.621 36.375 13.86 10.664 9.242 16 22.335 16 39.281v81.359c0 16.949-5.336 30.024-16 39.219-10.668 9.187-22.793 13.781-36.375 13.781-13.668 0-25.813-4.594-36.438-13.781-10.625-9.195-15.937-22.27-15.937-39.219z" style="fill:#000;fill-opacity:1;fill-rule:nonzero;stroke:none" transform="matrix(1.33333 0 0 1.33333 0 0)"/></svg>