<svg xmlns="http://www.w3.org/2000/svg" xml:space="preserve" width="600.995" height="600.995"><path d="M480.398 240.398c0-132.551-107.449-240-240-240-132.55 0-240 107.449-240 240 0 132.55 107.45 240 240 240 132.551 0 240-107.45 240-240z" style="fill:#fff;fill-opacity:1;fill-rule:nonzero;stroke:none" transform="matrix(1.25 0 0 -1.25 0 600.995)"/><path d="M240.398 480.796C107.633 480.796 0 373.163 0 240.398 0 107.632 107.633-.001 240.398-.001c132.766 0 240.399 107.633 240.399 240.399 0 132.765-107.633 240.398-240.399 240.398zm0-.398c132.551 0 240-107.45 240-240 0-132.551-107.449-240-240-240-132.55 0-240 107.449-240 240 0 132.55 107.45 240 240 240z" style="fill:#000;fill-opacity:1;fill-rule:nonzero;stroke:none" transform="matrix(1.25 0 0 -1.25 0 600.995)"/><path d="M240.398 472.398c-127.746 0-232-104.254-232-232 0-127.747 104.254-232 232-232 127.747 0 232 104.253 232 232 0 127.746-104.253 232-232 232zm0-64.321c92.989 0 167.68-74.691 167.68-167.679 0-92.989-74.691-167.68-167.68-167.68-92.988 0-167.679 74.691-167.679 167.68 0 92.988 74.691 167.679 167.679 167.679z" style="fill:#c1121c;fill-opacity:1;fill-rule:nonzero;stroke:none" transform="matrix(1.25 0 0 -1.25 0 600.995)"/><path d="M23.832 456.511v-.024h-.023l.023.024z" style="fill:#000;fill-opacity:1;fill-rule:nonzero;stroke:none" transform="matrix(1.25 0 0 -1.25 0 600.995)"/><path d="M23.809 456.511h.023v-.023h-.023v.023z" style="fill:#000;fill-opacity:1;fill-rule:nonzero;stroke:none" transform="matrix(1.25 0 0 -1.25 0 600.995)"/><path d="M23.809 456.487v.024l.023-.024h-.023zm.023 0-.023.024v-.024h.023z" style="fill:#000;fill-opacity:1;fill-rule:nonzero;stroke:none" transform="matrix(1.25 0 0 -1.25 0 600.995)"/><path d="M23.859 456.487h-.05.023v.024l.027-.024z" style="fill:#000;fill-opacity:1;fill-rule:nonzero;stroke:none" transform="matrix(1.25 0 0 -1.25 0 600.995)"/><path d="M23.809 456.487v.024-.024l.023.024-.023-.024z" style="fill:#000;fill-opacity:1;fill-rule:nonzero;stroke:none" transform="matrix(1.25 0 0 -1.25 0 600.995)"/><path d="M23.809 456.511h.023v-.023h-.023v.023zM23.859 456.511v-.047h-.05l.05.047z" style="fill:#000;fill-opacity:1;fill-rule:nonzero;stroke:none" transform="matrix(1.25 0 0 -1.25 0 600.995)"/><path d="M23.809 456.511h.051v-.047h-.051v.047z" style="fill:#000;fill-opacity:1;fill-rule:nonzero;stroke:none" transform="matrix(1.25 0 0 -1.25 0 600.995)"/><path d="M23.809 456.464v.047l.05-.047h-.05zm.05 0-.05.047v-.047h.05z" style="fill:#000;fill-opacity:1;fill-rule:nonzero;stroke:none" transform="matrix(1.25 0 0 -1.25 0 600.995)"/><path d="M23.859 456.464h-.05.023v.047l.027-.047z" style="fill:#000;fill-opacity:1;fill-rule:nonzero;stroke:none" transform="matrix(1.25 0 0 -1.25 0 600.995)"/><path d="M23.809 456.464v.047-.047l.05.047-.05-.047z" style="fill:#000;fill-opacity:1;fill-rule:nonzero;stroke:none" transform="matrix(1.25 0 0 -1.25 0 600.995)"/><path d="M23.809 456.511h.051v-.047h-.051v.047z" style="fill:#000;fill-opacity:1;fill-rule:nonzero;stroke:none" transform="matrix(1.25 0 0 -1.25 0 600.995)"/><path d="M23.859 456.511v-.047h-.05l.05.047z" style="fill:#000;fill-opacity:1;fill-rule:nonzero;stroke:none" transform="matrix(1.25 0 0 -1.25 0 600.995)"/><path d="M23.809 456.511h.051v-.047h-.051v.047z" style="fill:#000;fill-opacity:1;fill-rule:nonzero;stroke:none" transform="matrix(1.25 0 0 -1.25 0 600.995)"/><path d="M23.809 456.464v.047l.05-.047h-.05zm.05 0-.05.047v-.047h.05z" style="fill:#000;fill-opacity:1;fill-rule:nonzero;stroke:none" transform="matrix(1.25 0 0 -1.25 0 600.995)"/><path d="M23.859 456.464h-.05.023v.047l.027-.047z" style="fill:#000;fill-opacity:1;fill-rule:nonzero;stroke:none" transform="matrix(1.25 0 0 -1.25 0 600.995)"/><path d="M23.809 456.464v.047-.047l.05.047-.05-.047z" style="fill:#000;fill-opacity:1;fill-rule:nonzero;stroke:none" transform="matrix(1.25 0 0 -1.25 0 600.995)"/><path d="M23.809 456.511h.051v-.047h-.051v.047z" style="fill:#000;fill-opacity:1;fill-rule:nonzero;stroke:none" transform="matrix(1.25 0 0 -1.25 0 600.995)"/><path d="M23.859 456.511v-.047h-.05l.05.047z" style="fill:#000;fill-opacity:1;fill-rule:nonzero;stroke:none" transform="matrix(1.25 0 0 -1.25 0 600.995)"/><path d="M23.809 456.511h.051v-.047h-.051v.047z" style="fill:#000;fill-opacity:1;fill-rule:nonzero;stroke:none" transform="matrix(1.25 0 0 -1.25 0 600.995)"/><path d="M23.809 456.464v.047l.05-.047h-.05zm.05 0-.05.047v-.047h.05z" style="fill:#000;fill-opacity:1;fill-rule:nonzero;stroke:none" transform="matrix(1.25 0 0 -1.25 0 600.995)"/><path d="M23.859 456.464h-.05.023v.047l.027-.047z" style="fill:#000;fill-opacity:1;fill-rule:nonzero;stroke:none" transform="matrix(1.25 0 0 -1.25 0 600.995)"/><path d="M23.809 456.464v.047-.047l.05.047-.05-.047z" style="fill:#000;fill-opacity:1;fill-rule:nonzero;stroke:none" transform="matrix(1.25 0 0 -1.25 0 600.995)"/><path d="M23.809 456.511h.051v-.047h-.051v.047zM123.477 233.093c-5.055-10.11-7.582-21.254-7.582-33.426 0-9.176 1.496-17.508 4.492-25 3.183-7.488 7.398-13.949 12.64-19.383 5.434-5.429 11.426-9.551 17.981-12.359 6.742-2.809 13.574-4.211 20.504-4.211 7.867 0 15.261 1.215 22.191 3.652 6.93 2.434 13.203 6.274 18.82 11.516 5.618 5.242 10.02 11.891 13.204 19.941 3.183 8.243 4.773 17.887 4.773 28.934 0 18.351-4.586 32.211-13.762 41.574-8.992 9.363-20.32 14.043-33.992 14.043-5.805 0-10.859-.84-15.168-2.527h-.558l42.132 84.551h-32.023l-53.652-107.305zm49.722 0c8.426 0 15.262-2.809 20.504-8.426 5.43-5.617 8.145-13.762 8.145-24.437 0-11.047-2.903-19.289-8.707-24.719-5.618-5.43-12.266-8.145-19.942-8.145-8.992 0-16.011 2.715-21.07 8.145-5.055 5.617-7.582 13.855-7.582 24.719 0 10.675 2.621 18.82 7.863 24.437 5.43 5.617 12.36 8.426 20.789 8.426zM336.25 197.983c0-9.55-2.527-17.042-7.586-22.472-5.055-5.43-11.891-8.145-20.504-8.145-8.613 0-15.449 2.715-20.504 8.145-5.058 5.43-7.586 12.922-7.586 22.472v84.833c0 9.546 2.528 17.039 7.586 22.468 5.055 5.434 11.891 8.149 20.504 8.149 8.613 0 15.449-2.715 20.504-8.149 5.059-5.429 7.586-12.922 7.586-22.468v-84.833zm-84.832-1.687c0-8.988 1.5-17.039 4.496-24.156 3.184-7.117 7.395-13.203 12.641-18.258 5.429-5.059 11.515-8.895 18.258-11.516 6.742-2.437 13.855-3.652 21.347-3.652 7.492 0 14.606 1.215 21.348 3.652 6.93 2.621 13.015 6.364 18.258 11.235 5.246 5.054 9.363 11.14 12.359 18.257 3.184 7.305 4.777 15.45 4.777 24.438v88.203c0 8.988-1.5 17.043-4.496 24.156-2.996 7.118-7.207 13.203-12.64 18.258-5.43 5.059-11.516 8.805-18.258 11.238-6.742 2.622-13.856 3.934-21.348 3.934-7.492 0-14.699-1.312-21.629-3.934-6.742-2.433-12.734-6.179-17.976-11.238-5.246-4.867-9.457-10.953-12.641-18.258-2.996-7.113-4.496-15.168-4.496-24.156v-88.203z" style="fill:#000;fill-opacity:1;fill-rule:nonzero;stroke:none" transform="matrix(1.25 0 0 -1.25 0 600.995)"/></svg>