<svg xmlns="http://www.w3.org/2000/svg" xml:space="preserve" width="600.995" height="600.995"><path d="M450.375 225.375c0 124.266-100.734 225-225 225s-225-100.734-225-225 100.734-225 225-225 225 100.734 225 225z" style="fill:#fff;fill-opacity:1;fill-rule:nonzero;stroke:none" transform="matrix(1.33333 0 0 1.33333 0 0)"/><path d="M225.375 0C100.906 0 0 100.906 0 225.375 0 349.84 100.906 450.746 225.375 450.746c124.465 0 225.371-100.906 225.371-225.371C450.746 100.906 349.84 0 225.375 0Zm0 .375c124.266 0 225 100.734 225 225s-100.734 225-225 225-225-100.734-225-225 100.734-225 225-225z" style="fill:#000;fill-opacity:1;fill-rule:nonzero;stroke:none" transform="matrix(1.33333 0 0 1.33333 0 0)"/><path d="M225.375 7.875c-119.766 0-217.5 97.734-217.5 217.5 0 119.762 97.734 217.5 217.5 217.5 119.762 0 217.5-97.738 217.5-217.5 0-119.766-97.738-217.5-217.5-217.5zm0 60.301c87.176 0 157.199 70.019 157.199 157.199 0 87.176-70.023 157.199-157.199 157.199-87.18 0-157.199-70.023-157.199-157.199 0-87.18 70.019-157.199 157.199-157.199z" style="fill:#c1121c;fill-opacity:1;fill-rule:nonzero;stroke:none" transform="matrix(1.33333 0 0 1.33333 0 0)"/><path d="M22.344 22.766v.023h-.024Z" style="fill:#000;fill-opacity:1;fill-rule:nonzero;stroke:none" transform="matrix(1.33333 0 0 1.33333 0 0)"/><path d="M22.32 22.766h.023v.023h-.023Z" style="fill:#000;fill-opacity:1;fill-rule:nonzero;stroke:none" transform="matrix(1.33333 0 0 1.33333 0 0)"/><path d="M22.32 22.789v-.023l.024.023zm.024 0-.024-.023v.023z" style="fill:#000;fill-opacity:1;fill-rule:nonzero;stroke:none" transform="matrix(1.33333 0 0 1.33333 0 0)"/><path d="M22.367 22.789h-.047.024v-.023Z" style="fill:#000;fill-opacity:1;fill-rule:nonzero;stroke:none" transform="matrix(1.33333 0 0 1.33333 0 0)"/><path d="M22.32 22.789v-.023.023l.024-.023z" style="fill:#000;fill-opacity:1;fill-rule:nonzero;stroke:none" transform="matrix(1.33333 0 0 1.33333 0 0)"/><path d="M22.32 22.766h.023v.023h-.023ZM22.367 22.766v.046h-.047Z" style="fill:#000;fill-opacity:1;fill-rule:nonzero;stroke:none" transform="matrix(1.33333 0 0 1.33333 0 0)"/><path d="M22.32 22.766h.047v.047h-.047Z" style="fill:#000;fill-opacity:1;fill-rule:nonzero;stroke:none" transform="matrix(1.33333 0 0 1.33333 0 0)"/><path d="M22.32 22.812v-.046l.047.046zm.047 0-.047-.046v.046z" style="fill:#000;fill-opacity:1;fill-rule:nonzero;stroke:none" transform="matrix(1.33333 0 0 1.33333 0 0)"/><path d="M22.367 22.812h-.047.024v-.046Z" style="fill:#000;fill-opacity:1;fill-rule:nonzero;stroke:none" transform="matrix(1.33333 0 0 1.33333 0 0)"/><path d="M22.32 22.812v-.046.046l.047-.046z" style="fill:#000;fill-opacity:1;fill-rule:nonzero;stroke:none" transform="matrix(1.33333 0 0 1.33333 0 0)"/><path d="M22.32 22.766h.047v.047h-.047Z" style="fill:#000;fill-opacity:1;fill-rule:nonzero;stroke:none" transform="matrix(1.33333 0 0 1.33333 0 0)"/><path d="M22.367 22.766v.046h-.047Z" style="fill:#000;fill-opacity:1;fill-rule:nonzero;stroke:none" transform="matrix(1.33333 0 0 1.33333 0 0)"/><path d="M22.32 22.766h.047v.047h-.047Z" style="fill:#000;fill-opacity:1;fill-rule:nonzero;stroke:none" transform="matrix(1.33333 0 0 1.33333 0 0)"/><path d="M22.32 22.812v-.046l.047.046zm.047 0-.047-.046v.046z" style="fill:#000;fill-opacity:1;fill-rule:nonzero;stroke:none" transform="matrix(1.33333 0 0 1.33333 0 0)"/><path d="M22.367 22.812h-.047.024v-.046Z" style="fill:#000;fill-opacity:1;fill-rule:nonzero;stroke:none" transform="matrix(1.33333 0 0 1.33333 0 0)"/><path d="M22.32 22.812v-.046.046l.047-.046z" style="fill:#000;fill-opacity:1;fill-rule:nonzero;stroke:none" transform="matrix(1.33333 0 0 1.33333 0 0)"/><path d="M22.32 22.766h.047v.047h-.047Z" style="fill:#000;fill-opacity:1;fill-rule:nonzero;stroke:none" transform="matrix(1.33333 0 0 1.33333 0 0)"/><path d="M22.367 22.766v.046h-.047Z" style="fill:#000;fill-opacity:1;fill-rule:nonzero;stroke:none" transform="matrix(1.33333 0 0 1.33333 0 0)"/><path d="M22.32 22.766h.047v.047h-.047Z" style="fill:#000;fill-opacity:1;fill-rule:nonzero;stroke:none" transform="matrix(1.33333 0 0 1.33333 0 0)"/><path d="M22.32 22.812v-.046l.047.046zm.047 0-.047-.046v.046z" style="fill:#000;fill-opacity:1;fill-rule:nonzero;stroke:none" transform="matrix(1.33333 0 0 1.33333 0 0)"/><path d="M22.367 22.812h-.047.024v-.046Z" style="fill:#000;fill-opacity:1;fill-rule:nonzero;stroke:none" transform="matrix(1.33333 0 0 1.33333 0 0)"/><path d="M22.32 22.812v-.046.046l.047-.046z" style="fill:#000;fill-opacity:1;fill-rule:nonzero;stroke:none" transform="matrix(1.33333 0 0 1.33333 0 0)"/><path d="M22.32 22.766h.047v.047h-.047ZM212.961 219.762l-50 100h-29.844l39.281-78.703h-.515c-4.25 1.617-8.969 2.421-14.156 2.421-11.907 0-22.282-4.117-31.125-12.359-8.93-8.164-13.391-21.348-13.391-39.547 0-21.344 5.656-36.601 16.969-45.781 11.394-9.27 24.066-13.906 38.015-13.906 12.914 0 24.817 5.101 35.703 15.297 10.801 10.211 16.204 24.07 16.204 41.578 0 11.312-2.383 21.648-7.141 31zm-46.297 0c7.395 0 13.688-2.461 18.875-7.391 5.188-4.758 7.781-12.457 7.781-23.094 0-20.488-8.886-30.734-26.656-30.734-6.211 0-12.203 2.34-17.984 7.016-5.875 4.761-8.813 12.668-8.813 23.718 0 10.543 2.594 18.243 7.781 23.094 5.102 4.93 11.442 7.391 19.016 7.391zM313.352 264.586v-78.313c0-8.851-2.387-15.765-7.157-20.734-4.761-4.977-11.023-7.469-18.781-7.469-7.844 0-14.133 2.492-18.859 7.469-4.719 4.969-7.078 11.883-7.078 20.734v78.313c0 8.949 2.359 15.891 7.078 20.828 4.726 4.93 11.015 7.391 18.859 7.391 7.758 0 14.02-2.461 18.781-7.391 4.77-4.937 7.157-11.879 7.157-20.828zm-78.313 1.531v-81.359c0-16.946 5.313-30.039 15.938-39.281 10.625-9.239 22.769-13.86 36.437-13.86 13.582 0 25.707 4.621 36.375 13.86 10.664 9.242 16 22.335 16 39.281v81.359c0 16.949-5.336 30.024-16 39.219-10.668 9.187-22.793 13.781-36.375 13.781-13.668 0-25.812-4.594-36.437-13.781-10.625-9.195-15.938-22.27-15.938-39.219z" style="fill:#000;fill-opacity:1;fill-rule:nonzero;stroke:none" transform="matrix(1.33333 0 0 1.33333 0 0)"/></svg>