<svg xmlns="http://www.w3.org/2000/svg" xml:space="preserve" width="600.995" height="600.995"><path d="M450.375 225.371c0-124.265-100.734-225-225-225s-225 100.735-225 225c0 124.266 100.734 225 225 225s225-100.734 225-225z" style="fill:#fff;fill-opacity:1;fill-rule:nonzero;stroke:none" transform="matrix(1.33333 0 0 -1.33333 0 600.995)"/><path d="M225.375 450.746C100.906 450.746 0 349.84 0 225.371 0 100.906 100.906 0 225.375 0 349.84 0 450.746 100.906 450.746 225.371c0 124.469-100.906 225.375-225.371 225.375zm0-.375c124.266 0 225-100.734 225-225 0-124.265-100.734-225-225-225s-225 100.735-225 225c0 124.266 100.734 225 225 225z" style="fill:#000;fill-opacity:1;fill-rule:nonzero;stroke:none" transform="matrix(1.33333 0 0 -1.33333 0 600.995)"/><path d="M225.375 442.871c-119.766 0-217.5-97.734-217.5-217.5 0-119.761 97.734-217.5 217.5-217.5 119.762 0 217.5 97.739 217.5 217.5 0 119.766-97.738 217.5-217.5 217.5zm0-60.301c87.176 0 157.199-70.019 157.199-157.199 0-87.176-70.023-157.199-157.199-157.199-87.18 0-157.199 70.023-157.199 157.199 0 87.18 70.019 157.199 157.199 157.199z" style="fill:#c1121c;fill-opacity:1;fill-rule:nonzero;stroke:none" transform="matrix(1.33333 0 0 -1.33333 0 600.995)"/><path d="M22.344 427.981v-.024h-.024Z" style="fill:#000;fill-opacity:1;fill-rule:nonzero;stroke:none" transform="matrix(1.33333 0 0 -1.33333 0 600.995)"/><path d="M22.32 427.981h.023v-.023h-.023Z" style="fill:#000;fill-opacity:1;fill-rule:nonzero;stroke:none" transform="matrix(1.33333 0 0 -1.33333 0 600.995)"/><path d="M22.32 427.957v.024l.024-.024zm.024 0-.024.024v-.024z" style="fill:#000;fill-opacity:1;fill-rule:nonzero;stroke:none" transform="matrix(1.33333 0 0 -1.33333 0 600.995)"/><path d="M22.367 427.957h-.047.024v.024z" style="fill:#000;fill-opacity:1;fill-rule:nonzero;stroke:none" transform="matrix(1.33333 0 0 -1.33333 0 600.995)"/><path d="M22.32 427.957v.024-.024l.024.024z" style="fill:#000;fill-opacity:1;fill-rule:nonzero;stroke:none" transform="matrix(1.33333 0 0 -1.33333 0 600.995)"/><path d="M22.32 427.981h.023v-.023h-.023ZM22.367 427.981v-.047h-.047Z" style="fill:#000;fill-opacity:1;fill-rule:nonzero;stroke:none" transform="matrix(1.33333 0 0 -1.33333 0 600.995)"/><path d="M22.32 427.981h.047v-.047h-.047Z" style="fill:#000;fill-opacity:1;fill-rule:nonzero;stroke:none" transform="matrix(1.33333 0 0 -1.33333 0 600.995)"/><path d="M22.32 427.934v.047l.047-.047zm.047 0-.047.047v-.047z" style="fill:#000;fill-opacity:1;fill-rule:nonzero;stroke:none" transform="matrix(1.33333 0 0 -1.33333 0 600.995)"/><path d="M22.367 427.934h-.047.024v.047z" style="fill:#000;fill-opacity:1;fill-rule:nonzero;stroke:none" transform="matrix(1.33333 0 0 -1.33333 0 600.995)"/><path d="M22.32 427.934v.047-.047l.047.047z" style="fill:#000;fill-opacity:1;fill-rule:nonzero;stroke:none" transform="matrix(1.33333 0 0 -1.33333 0 600.995)"/><path d="M22.32 427.981h.047v-.047h-.047Z" style="fill:#000;fill-opacity:1;fill-rule:nonzero;stroke:none" transform="matrix(1.33333 0 0 -1.33333 0 600.995)"/><path d="M22.367 427.981v-.047h-.047Z" style="fill:#000;fill-opacity:1;fill-rule:nonzero;stroke:none" transform="matrix(1.33333 0 0 -1.33333 0 600.995)"/><path d="M22.32 427.981h.047v-.047h-.047Z" style="fill:#000;fill-opacity:1;fill-rule:nonzero;stroke:none" transform="matrix(1.33333 0 0 -1.33333 0 600.995)"/><path d="M22.32 427.934v.047l.047-.047zm.047 0-.047.047v-.047z" style="fill:#000;fill-opacity:1;fill-rule:nonzero;stroke:none" transform="matrix(1.33333 0 0 -1.33333 0 600.995)"/><path d="M22.367 427.934h-.047.024v.047z" style="fill:#000;fill-opacity:1;fill-rule:nonzero;stroke:none" transform="matrix(1.33333 0 0 -1.33333 0 600.995)"/><path d="M22.32 427.934v.047-.047l.047.047z" style="fill:#000;fill-opacity:1;fill-rule:nonzero;stroke:none" transform="matrix(1.33333 0 0 -1.33333 0 600.995)"/><path d="M22.32 427.981h.047v-.047h-.047Z" style="fill:#000;fill-opacity:1;fill-rule:nonzero;stroke:none" transform="matrix(1.33333 0 0 -1.33333 0 600.995)"/><path d="M22.367 427.981v-.047h-.047Z" style="fill:#000;fill-opacity:1;fill-rule:nonzero;stroke:none" transform="matrix(1.33333 0 0 -1.33333 0 600.995)"/><path d="M22.32 427.981h.047v-.047h-.047Z" style="fill:#000;fill-opacity:1;fill-rule:nonzero;stroke:none" transform="matrix(1.33333 0 0 -1.33333 0 600.995)"/><path d="M22.32 427.934v.047l.047-.047zm.047 0-.047.047v-.047z" style="fill:#000;fill-opacity:1;fill-rule:nonzero;stroke:none" transform="matrix(1.33333 0 0 -1.33333 0 600.995)"/><path d="M22.367 427.934h-.047.024v.047z" style="fill:#000;fill-opacity:1;fill-rule:nonzero;stroke:none" transform="matrix(1.33333 0 0 -1.33333 0 600.995)"/><path d="M22.32 427.934v.047-.047l.047.047z" style="fill:#000;fill-opacity:1;fill-rule:nonzero;stroke:none" transform="matrix(1.33333 0 0 -1.33333 0 600.995)"/><path d="M22.32 427.981h.047v-.047h-.047ZM127.031 289.598l-26.414-19.422v27.969l26.414 19.422h26.414V133.176h-26.414zM173.062 279.496c0 6.219 1.036 11.742 3.106 16.574 2.246 4.836 5.18 8.981 8.805 12.434 3.629 3.453 7.769 6.043 12.433 7.77a40.734 40.734 0 0 0 15.02 2.847c5.179 0 10.101-.949 14.762-2.847 4.835-1.727 9.066-4.317 12.691-7.77 3.625-3.453 6.473-7.598 8.547-12.434 2.242-4.832 3.363-10.355 3.363-16.574v-108.25c0-6.219-1.121-11.742-3.363-16.574-2.074-4.836-4.922-8.98-8.547-12.434-3.625-3.453-7.856-6.128-12.691-8.027-4.661-1.726-9.583-2.59-14.762-2.59-5.18 0-10.188.864-15.02 2.59a39.454 39.454 0 0 0-12.433 8.027c-3.625 3.454-6.559 7.598-8.805 12.434-2.07 4.832-3.106 10.355-3.106 16.574zm26.415-108.25c0-3.801 1.211-6.992 3.625-9.582 2.418-2.418 5.527-3.629 9.324-3.629 3.797 0 6.906 1.211 9.324 3.629 2.418 2.59 3.625 5.781 3.625 9.582v108.25c0 3.801-1.207 6.906-3.625 9.324-2.418 2.59-5.527 3.887-9.324 3.887-3.797 0-6.906-1.297-9.324-3.887-2.414-2.418-3.625-5.523-3.625-9.324zM271.406 279.496c0 6.219 1.035 11.742 3.106 16.574 2.246 4.836 5.179 8.981 8.804 12.434 3.629 3.453 7.77 6.043 12.434 7.77a40.734 40.734 0 0 0 15.02 2.847c5.179 0 10.101-.949 14.761-2.847 4.836-1.727 9.067-4.317 12.692-7.77 3.625-3.453 6.472-7.598 8.547-12.434 2.242-4.832 3.363-10.355 3.363-16.574v-108.25c0-6.219-1.121-11.742-3.363-16.574-2.075-4.836-4.922-8.98-8.547-12.434-3.625-3.453-7.856-6.128-12.692-8.027-4.66-1.726-9.582-2.59-14.761-2.59-5.18 0-10.188.864-15.02 2.59a39.458 39.458 0 0 0-12.434 8.027c-3.625 3.454-6.558 7.598-8.804 12.434-2.071 4.832-3.106 10.355-3.106 16.574zm26.414-108.25c0-3.801 1.211-6.992 3.625-9.582 2.418-2.418 5.528-3.629 9.325-3.629 3.796 0 6.906 1.211 9.324 3.629 2.418 2.59 3.625 5.781 3.625 9.582v108.25c0 3.801-1.207 6.906-3.625 9.324-2.418 2.59-5.528 3.887-9.324 3.887-3.797 0-6.907-1.297-9.325-3.887-2.414-2.418-3.625-5.523-3.625-9.324z" style="fill:#000;fill-opacity:1;fill-rule:nonzero;stroke:none" transform="matrix(1.33333 0 0 -1.33333 0 600.995)"/></svg>