<svg xmlns="http://www.w3.org/2000/svg" xml:space="preserve" width="600.995" height="600.995"><path d="M480.398 240.398c0-132.551-107.449-240-240-240-132.55 0-240 107.449-240 240 0 132.55 107.45 240 240 240 132.551 0 240-107.45 240-240z" style="fill:#fff;fill-opacity:1;fill-rule:nonzero;stroke:none" transform="matrix(1.25 0 0 -1.25 0 600.995)"/><path d="M240.398 480.796C107.633 480.796 0 373.163 0 240.398 0 107.632 107.633-.001 240.398-.001c132.766 0 240.399 107.633 240.399 240.399 0 132.765-107.633 240.398-240.399 240.398zm0-.398c132.551 0 240-107.45 240-240 0-132.551-107.449-240-240-240-132.55 0-240 107.449-240 240 0 132.55 107.45 240 240 240z" style="fill:#000;fill-opacity:1;fill-rule:nonzero;stroke:none" transform="matrix(1.25 0 0 -1.25 0 600.995)"/><path d="M240.398 472.398c-127.746 0-232-104.254-232-232 0-127.747 104.254-232 232-232 127.747 0 232 104.253 232 232 0 127.746-104.253 232-232 232zm0-64.321c92.989 0 167.68-74.691 167.68-167.679 0-92.989-74.691-167.68-167.68-167.68-92.988 0-167.679 74.691-167.679 167.68 0 92.988 74.691 167.679 167.679 167.679z" style="fill:#c1121c;fill-opacity:1;fill-rule:nonzero;stroke:none" transform="matrix(1.25 0 0 -1.25 0 600.995)"/><path d="M123.008 291.675a8.033 8.033 0 0 1-7.356-4.809L102.98 257.73a29.69 29.69 0 0 0-3.367-5.805l-1.925-2.555a9.641 9.641 0 0 1-1.93-5.769v-20.836a8.009 8.009 0 0 1 8.008-8.008h118.609c4.422 0 8.012 3.586 8.012 8.008v20.836c0 2.074-.68 4.097-1.926 5.769l-1.93 2.555a29.741 29.741 0 0 0-3.367 5.805l-12.672 29.136a8.03 8.03 0 0 1-7.355 4.809h-80.129zm1.937-8.008h76.254c1.274 0 2.438-.75 2.946-1.926l11.011-25.32H110.988L122 281.741a3.197 3.197 0 0 0 2.945 1.926zM203.137 211.546h19.242v-17.629a4.817 4.817 0 0 0-4.813-4.809h-9.617a4.814 4.814 0 0 0-4.812 4.809v17.629zm-99.367 0h19.238v-17.629a4.813 4.813 0 0 0-4.809-4.809h-9.621a4.813 4.813 0 0 0-4.808 4.809" style="fill:#c1121c;fill-opacity:1;fill-rule:nonzero;stroke:none" transform="matrix(1.25 0 0 -1.25 0 600.995)"/><path d="M277.66 291.675a8.016 8.016 0 0 1-7.344-4.809l-12.683-29.136c-.899-2.047-2.024-4-3.367-5.805l-1.93-2.555a9.652 9.652 0 0 1-1.914-5.769v-20.836a8.005 8.005 0 0 1 8.012-8.008h118.597a8.009 8.009 0 0 1 8.008 8.008v20.836a9.563 9.563 0 0 1-1.93 5.769l-1.914 2.555a29.846 29.846 0 0 0-3.379 5.805l-12.671 29.136a8.016 8.016 0 0 1-7.344 4.809H277.66zm1.938-8.008h76.265c1.274 0 2.422-.75 2.934-1.926l11.023-25.32H265.641l11.011 25.32a3.227 3.227 0 0 0 2.946 1.926zM357.801 211.546h19.226v-17.629a4.813 4.813 0 0 0-4.808-4.809h-9.617a4.804 4.804 0 0 0-4.801 4.809v17.629zm-99.367 0h19.226v-17.629a4.814 4.814 0 0 0-4.812-4.809h-9.606a4.813 4.813 0 0 0-4.808 4.809" style="fill:#000;fill-opacity:1;fill-rule:nonzero;stroke:none" transform="matrix(1.25 0 0 -1.25 0 600.995)"/></svg>