<svg xmlns="http://www.w3.org/2000/svg" xml:space="preserve" width="601.002" height="601.002"><path d="M480.402 240.403c0-132.551-107.453-240-240-240-132.55 0-240 107.449-240 240 0 132.547 107.45 240 240 240 132.547 0 240-107.453 240-240z" style="fill:#fff;fill-opacity:1;fill-rule:nonzero;stroke:none" transform="matrix(1.25 0 0 -1.25 0 601.002)"/><path d="M89.227 194.684v125.641c0 7.477 6.05 13.527 13.523 13.527h112.117c7.465 0 13.528-6.05 13.528-13.527V194.684H89.227zm123.703-50.261a3.874 3.874 0 0 0-3.868 3.867v38.66a3.871 3.871 0 0 0 3.868 3.867h11.597a3.866 3.866 0 0 0 3.868-3.867v-38.66a3.869 3.869 0 0 0-3.868-3.867H212.93zm-96.641 0a3.866 3.866 0 0 0-3.867 3.867v38.66a3.863 3.863 0 0 0 3.867 3.867h11.598a3.863 3.863 0 0 0 3.855-3.867v-10.633a3.873 3.873 0 0 1 3.875-3.867h7.348c1.98 0 3.887.762 5.32 2.133l2.527 2.398a11.577 11.577 0 0 0 15.993 0l2.527-2.398a7.697 7.697 0 0 1 5.32-2.133H182a3.865 3.865 0 0 1 3.867 3.867v10.633a3.87 3.87 0 0 0 3.863 3.867h11.602a3.862 3.862 0 0 0 3.863-3.867v-38.66a3.864 3.864 0 0 0-3.863-3.867H189.73a3.873 3.873 0 0 0-3.863 3.867v10.637A3.865 3.865 0 0 1 182 162.79h-7.348a7.693 7.693 0 0 1-5.32-2.129l-2.527-2.41c-4.477-4.262-11.516-4.262-15.993 0l-2.527 2.41a7.692 7.692 0 0 1-5.32 2.129h-7.348a3.873 3.873 0 0 1-3.875-3.863V148.29a3.865 3.865 0 0 0-3.855-3.867h-11.598zm-23.199 0a3.864 3.864 0 0 0-3.863 3.867v38.66a3.862 3.862 0 0 0 3.863 3.867h11.598a3.871 3.871 0 0 0 3.867-3.867v-38.66a3.874 3.874 0 0 0-3.867-3.867M283.477 261.423c-.2 0-.395-.008-.594-.02-.059-.004-.117-.012-.18-.015a6.121 6.121 0 0 1-.445-.051 2.014 2.014 0 0 1-.242-.035 7.394 7.394 0 0 1-.411-.075l-.351-.082c-.043-.011-.082-.023-.121-.031a9.127 9.127 0 0 1-6.039-5.184l-14.453-33.234a33.082 33.082 0 0 0-3.856-6.609l-2.187-2.926a10.93 10.93 0 0 1-2.203-6.586v-23.758c0-5.054 4.101-9.144 9.144-9.144h135.016c.711-.02 1.41.047 2.082.183l.058.012c.121.023.239.051.356.082l.14.035.247.07.253.083c.047.015.094.031.145.046.102.036.203.075.305.114l.086.035c.121.051.242.101.363.156 0 0 .004 0 .008.004.004 0 .004 0 .004.004a9.133 9.133 0 0 1 5.355 8.32v23.758a10.88 10.88 0 0 1-2.199 6.586l-2.258 3.008a32.179 32.179 0 0 0-2.453 3.828c-.121.219-.238.437-.352.66-.043.086-.09.168-.133.254l-.171.348c-.231.472-.457.953-.668 1.437l-1.528 3.508-.234.547v-.004l-12.703 29.183a9.13 9.13 0 0 1-8.371 5.493h-91.41zm2.211-9.141h86.976a3.655 3.655 0 0 0 3.211-1.914l.043-.078c.035-.07.07-.137.098-.211l8.546-19.645.012.012 4.02-9.234H269.773l2.293 5.25-.031-.028 10.301 23.649a3.652 3.652 0 0 0 3.352 2.199zm-24.149-82.258v-20.105c0-.379.039-.75.113-1.106.512-2.5 2.719-4.39 5.368-4.39h10.976c3.027 0 5.481 2.465 5.481 5.496v20.105h-21.938zm113.34 0v-2.062l.012.011v-15.074l-.012-.011v-2.969a5.509 5.509 0 0 1 3.305-5.047l.004.008a5.36 5.36 0 0 1 2.171-.453h10.973a5.437 5.437 0 0 1 2.344.531c.008.004.019.008.031.015.176.086.348.18.516.286.007.004.015.007.019.011a5.492 5.492 0 0 1 1.719 1.711l.035.059c.094.148.176.308.258.469.012.027.023.054.039.082.074.156.137.316.195.48.008.02.02.039.028.063l-.004-.008c.191.562.304 1.164.304 1.793v20.105h-21.941.004z" style="fill:#8a8a8a;fill-opacity:1;fill-rule:nonzero;stroke:none" transform="matrix(1.25 0 0 -1.25 0 601.002)"/><path d="M240.398 480.802C107.633 480.802 0 373.169 0 240.403 0 107.638 107.633.001 240.398.001c132.766 0 240.403 107.637 240.403 240.402 0 132.766-107.637 240.399-240.403 240.399zm0-.399c132.551 0 240-107.453 240-240 0-132.551-107.449-240-240-240-132.546 0-240 107.449-240 240 0 132.547 107.454 240 240 240z" style="fill:#000;fill-opacity:1;fill-rule:nonzero;stroke:none" transform="matrix(1.25 0 0 -1.25 0 601.002)"/><path d="M240.398 472.348c-128.023 0-231.941-103.921-231.941-231.945 0-128.027 103.918-231.945 231.941-231.945 128.028 0 231.946 103.918 231.946 231.945 0 128.024-103.918 231.945-231.946 231.945zm0-12c46.309 0 89.25-14.296 124.676-38.703L59.156 115.727c-24.406 35.426-38.703 78.368-38.703 124.676 0 121.539 98.406 219.945 219.945 219.945zm131.922-43.902a222.916 222.916 0 0 0 7.133-5.594L69.949 101.348a225.807 225.807 0 0 0-5.594 7.133L372.32 416.446Zm13.856-11.316a227.777 227.777 0 0 0 6.629-6.102L81.773 88.001a222.519 222.519 0 0 0-6.101 6.625L386.176 405.13Zm12.847-12.328a217.421 217.421 0 0 0 6.106-6.625L94.625 75.673A217.389 217.389 0 0 0 88 81.778l311.023 311.024zm11.829-13.344c1.91-2.34 3.777-4.715 5.593-7.133L108.48 64.356a225.926 225.926 0 0 0-7.136 5.594l309.508 309.508zm10.793-14.383c24.406-35.426 38.703-78.367 38.703-124.672 0-121.543-98.407-219.945-219.95-219.945-46.304 0-89.246 14.297-124.671 38.703l305.918 305.914z" style="fill:#000;fill-opacity:1;fill-rule:nonzero;stroke:none" transform="matrix(1.25 0 0 -1.25 0 601.002)"/></svg>