<svg xmlns="http://www.w3.org/2000/svg" xml:space="preserve" width="919.948" height="230"><defs><clipPath id="a" clipPathUnits="userSpaceOnUse"><path d="M0 0h736v184H0V0Z"/></clipPath></defs><g clip-path="url(#a)" transform="matrix(1.25 0 0 -1.25 0 230)"><path d="M22.078 0C9.887 0 0 9.898 0 22.09v139.832C0 174.113 9.887 184 22.078 184h558.863a66.192 66.192 0 0 0 33.118-8.879l110.851-63.996c10.559-6.098 14.188-19.602 8.09-30.16a22.004 22.004 0 0 0-8.09-8.078L614.059 8.883A66.279 66.279 0 0 0 580.941 0" style="fill:#f0c900;fill-opacity:1;fill-rule:nonzero;stroke:none"/></g><path d="M22.082 178.477c-9.152 0-16.559-7.407-16.559-16.559V22.09c0-9.149 7.407-16.555 16.559-16.555h558.859a60.855 60.855 0 0 1 30.368 8.117L722.16 77.66a16.478 16.478 0 0 1 6.051 6.055c4.586 7.93 1.855 18.062-6.051 22.633l-110.851 64a60.743 60.743 0 0 1-30.368 8.129H22.082zm0-9.192h558.859a51.472 51.472 0 0 0 25.762-6.91l110.856-64c3.531-2.02 4.73-6.539 2.695-10.043a7.413 7.413 0 0 0-2.695-2.699L606.703 21.621a51.61 51.61 0 0 0-25.762-6.894H22.082c-4.062 0-7.367 3.304-7.367 7.363v139.828c0 4.062 3.305 7.367 7.367 7.367z" style="fill:#000;fill-opacity:1;fill-rule:nonzero;stroke:none" transform="matrix(1.25 0 0 -1.25 0 230)"/><path d="M534.141 53.363h-6.899c-6.851 0-12.418 5.567-12.418 12.418V99.59h-5.519v8.976h5.519v16.559h11.035v-16.559h8.282V99.59h-8.282V67.168a3.448 3.448 0 0 1 3.465-3.449h4.817V53.363zm-67.61 0v55.203h11.043v-6.238c6.465 8.004 18.192 9.254 26.192 2.785 0 0 .011-.008.023-.008l-7.84-9.683c-4.558 4.058-11.531 3.648-15.594-.91a11.04 11.04 0 0 1-2.781-7.328V53.363h-11.043zm-60.718 0v77.285h11.035v-28.32c6.465 8.004 18.199 9.254 26.207 2.785a18.618 18.618 0 0 0 6.918-14.488V53.363h-11.047v33.821c0 6.082-4.938 11.031-11.035 11.031-6.098 0-11.043-4.949-11.043-11.031V53.363h-11.035zm-27.602 24.149h-15.863a6.895 6.895 0 0 1-6.899-6.899 6.892 6.892 0 0 1 6.899-6.894h8.965a6.892 6.892 0 0 1 6.898 6.894v6.899zm11.043-24.149h-11.043v5.696a11.042 11.042 0 0 0-9.66-5.696h-6.899c-9.14 0-16.554 7.418-16.554 16.559 0 9.152 7.414 16.566 16.554 16.566h16.559v5.52a6.225 6.225 0 0 1-5.133 6.121c-3.91.683-7.894.683-11.805 0a6.212 6.212 0 0 1-4.492-3.367l-8.726 6.898a17.229 17.229 0 0 0 11.312 7.34 45.602 45.602 0 0 0 15.617 0c8.25-1.453 14.27-8.617 14.27-16.992V53.363zm-74.524 0V99.59h-5.507v8.976h5.507v8.278c0 7.621 6.188 13.804 13.809 13.804h8.274v-10.355h-7.59a3.451 3.451 0 0 1-3.442-3.449v-8.278h11.032V99.59h-11.032V53.363H314.73zm-62.085 8.848 7.785 7.82a23.2 23.2 0 0 1 24.511-5.273c2.852 1.066 4.293 4.254 3.231 7.101-.77 2.032-2.652 3.446-4.82 3.575l-11.739.734c-9.129.566-16.058 8.426-15.496 17.555a16.586 16.586 0 0 0 12.672 15.07 34.328 34.328 0 0 0 29.391-6.527l-6.891-8.629a23.225 23.225 0 0 1-19.926 4.425 5.529 5.529 0 0 1-4.082-6.656 5.507 5.507 0 0 1 5.028-4.222l11.726-.727c9.129-.574 16.059-8.434 15.496-17.562a16.58 16.58 0 0 0-10.711-14.469 34.216 34.216 0 0 0-36.175 7.785zm-13.797-8.848h-11.047v6.235c-6.465-8.012-18.192-9.243-26.192-2.782a18.612 18.612 0 0 0-6.921 14.489v37.261h11.035V74.75c0-6.094 4.945-11.031 11.043-11.031 6.086 0 11.035 4.937 11.035 11.031v33.816h11.047V53.363zm-96.95 27.602h22.782l-11.387 33.808-11.395-33.808zm-21.722-27.602 28.285 77.285h9.656l28.285-77.285h-12.41l-5.812 17.25h-29.782l-5.8-17.25" style="fill:#000;fill-opacity:1;fill-rule:nonzero;stroke:none" transform="matrix(1.25 0 0 -1.25 0 230)"/></svg>