<svg xmlns="http://www.w3.org/2000/svg" xml:space="preserve" width="1400.036" height="350"><defs><clipPath id="a" clipPathUnits="userSpaceOnUse"><path d="M0 0h1121v280H0V0Z"/></clipPath><clipPath id="b" clipPathUnits="userSpaceOnUse"><path d="M0 0h1121v280H0V0Z"/></clipPath></defs><g clip-path="url(#a)" transform="matrix(1.25 0 0 -1.25 0 350)"><path d="M33.191 280C14.91 280 0 265.125 0 246.844V33.191C0 14.875 14.91 0 33.191 0h850.555a100.74 100.74 0 0 1 50.317 13.488l169.355 97.785a33.22 33.22 0 0 1 12.164 12.133c4.43 7.703 5.586 16.625 3.305 25.188-2.313 8.562-7.801 15.703-15.469 20.133l-169.355 97.785A100.74 100.74 0 0 1 883.746 280H33.191z" style="fill:#f0c900;fill-opacity:1;fill-rule:nonzero;stroke:none"/></g><g clip-path="url(#b)" transform="matrix(1.25 0 0 -1.25 0 350)"><path d="M33.27 271.977c-13.985 0-25.29-11.336-25.29-25.321V33.355c0-13.984 11.305-25.32 25.29-25.32h850.476a92.95 92.95 0 0 1 46.383 12.43l169.351 97.625c3.872 2.215 7.043 5.422 9.258 9.254 7.008 12.101 2.844 27.57-9.258 34.578l-169.351 97.625a92.95 92.95 0 0 1-46.383 12.43H33.27zm0-12.079h850.476c13.82 0 27.934-3.632 39.899-10.543l170.91-98.667c5.386-3.106 6.965-11.903 3.859-17.258a11.443 11.443 0 0 0-4.098-4.133L923.805 30.625c-11.965-6.906-25.36-10.543-39.176-10.543H33.27c-13.204 0-13.161 13.273-13.161 13.273v213.301c0 13.414 13.161 13.242 13.161 13.242z" style="fill:#000;fill-opacity:1;fill-rule:nonzero;stroke:none"/><path d="M128.047 199.043h17.918v-76.961c0-13.387 10.844-24.23 24.265-24.23 13.387 0 24.231 10.843 24.231 24.23v76.961h17.918v-76.961c0-23.273-18.875-42.18-42.149-42.18-23.304 0-42.183 18.907-42.183 42.18v76.961zM235.574 80.969v84.332h16.86v-9.524c9.886 12.235 27.804 14.149 40.035 4.266a29.598 29.598 0 0 0 5.058-5.289c11.039 13.519 30.973 15.535 44.496 4.461a31.487 31.487 0 0 0 11.633-24.461V80.969h-16.89v51.668c0 9.324-7.539 16.859-16.86 16.859-9.289 0-16.859-7.535-16.859-16.859V80.969h-16.859v51.668c0 9.324-7.571 16.859-16.86 16.859-9.324 0-16.894-7.535-16.894-16.859V80.969h-16.86zM406.355 80.969h-10.546c-10.477 0-18.973 8.496-18.973 18.976v99.106h16.859v-96.992c0-2.907 2.379-5.289 5.289-5.289h7.371V80.969zM440.09 131.57h35.836c0 9.883-8 17.918-17.918 17.918-9.883 0-17.918-8.035-17.918-17.918m52.695-14.742H440.09v-2.117c0-7.34 4.465-13.918 11.273-16.66 9.356-3.738 20.102-1.094 26.68 6.543l12.793-10.973c-11.273-13.125-29.652-17.652-45.754-11.207a34.78 34.78 0 0 0-21.852 32.297v16.859c0 19.207 15.571 34.778 34.778 34.778s34.777-15.571 34.777-34.778v-14.742zM516.004 199.043h16.859v-16.859h-16.859v16.859zm0-33.754h16.859V80.957h-16.859v84.332zM594 80.969h-10.547c-10.48 0-18.976 8.496-18.976 18.976v51.668h-8.43v13.688h8.43v25.32h16.859v-25.32H594v-13.688h-12.664v-49.554c0-2.907 2.383-5.289 5.289-5.289H594V80.969zM680.449 80.969H663.59v9.519c-9.887-12.23-27.805-14.113-40.035-4.261-6.676 5.418-10.578 13.55-10.578 22.148v56.926h16.894v-51.672c0-9.289 7.535-16.859 16.859-16.859 9.29 0 16.86 7.57 16.86 16.859v51.672h16.859V80.969zM705.754 80.969v84.332h16.859v-9.524c9.883 12.235 27.801 14.149 40.032 4.266 6.679-5.422 10.582-13.555 10.582-22.148V80.969h-16.86v51.668c0 9.324-7.57 16.859-16.894 16.859-9.289 0-16.86-7.535-16.86-16.859V80.969h-16.859zM847.012 113.645v18.972c0 9.324-7.539 16.86-16.86 16.86-9.324 0-16.863-7.536-16.863-16.86v-18.972c0-9.325 7.539-16.86 16.863-16.86 9.321 0 16.86 7.535 16.86 16.86m16.859 51.668V79.926a33.716 33.716 0 0 0-18.644-30.184c-16.102-8.066-35.672-3.836-47.043 10.149l13.125 10.644c6.347-7.867 17.355-10.246 26.379-5.719a16.922 16.922 0 0 1 9.324 15.11v10.578c-9.887-12.234-27.805-14.149-40.035-4.266-6.676 5.387-10.547 13.52-10.547 22.149v29.519c0 15.703 12.73 28.465 28.465 28.465a28.494 28.494 0 0 0 22.117-10.578v9.52h16.859z" style="fill:#000;fill-opacity:1;fill-rule:nonzero;stroke:none"/></g></svg>